<?xml version="1.0" encoding="UTF-8" standalone="no"?>
<!DOCTYPE svg PUBLIC "-//W3C//DTD SVG 1.1//EN" "http://www.w3.org/Graphics/SVG/1.1/DTD/svg11.dtd">
<svg width="100%" height="100%" viewBox="0 0 1000 1000" version="1.1" xmlns="http://www.w3.org/2000/svg" xmlns:xlink="http://www.w3.org/1999/xlink" xml:space="preserve" xmlns:serif="http://www.serif.com/" style="fill-rule:evenodd;clip-rule:evenodd;stroke-linejoin:round;stroke-miterlimit:2;">
    <g id="pappadam" transform="matrix(20.7631,0,0,20.7631,-246.713,-248.214)">
        <g id="color">
            <circle cx="36" cy="36" r="23" style="fill:rgb(246,231,165);"/>
            <path d="M54.695,22.61C55.374,24.809 55.198,27.159 55.72,29.401C58.487,41.281 51.718,50.097 32.72,52.401C25.362,53.293 18.336,48.818 14.021,42.792C16.988,52.407 25.936,59.009 35.999,59.009C48.617,59.009 59,48.626 59,36.008C59,31.203 57.494,26.516 54.695,22.61Z" style="fill:rgb(169,142,97);fill-rule:nonzero;"/>
        </g>
        <g id="line">
            <path d="M36.028,12C28.751,11.793 20.933,15.107 16.687,20.301C13.233,24.527 12.678,30.002 12.006,35.887C11.146,43.42 14.832,50.119 20.603,54.708C24.84,58.077 30.047,60.579 36.096,59.995C41.596,59.465 47.855,57.988 52.092,54.613C55.403,51.975 58.051,47.86 59.112,44.085C59.843,41.486 60.174,38.764 59.998,35.938C59.529,28.411 58.708,22.771 53.047,18.318C49.144,15.248 41.346,12.152 36.028,12ZM35.972,14C40.922,14.14 48.177,17.032 51.81,19.89C56.986,23.961 57.573,29.181 58.002,36.062C58.164,38.657 57.858,41.157 57.187,43.544C56.229,46.953 53.836,50.667 50.846,53.049C46.894,56.197 41.034,57.51 35.904,58.005C30.408,58.535 25.697,56.203 21.848,53.143C16.617,48.984 13.214,42.941 13.994,36.113C14.619,30.634 15.02,25.502 18.236,21.567C22.125,16.808 29.304,13.81 35.972,14Z"/>
            <g>
                <g transform="matrix(-0.124146,0.46332,-0.46332,-0.124146,50.5487,-2.10656)">
                    <path d="M50.137,22.723C50.137,20.036 52.318,17.855 55.005,17.855C57.691,17.855 59.872,20.036 59.872,22.723C59.872,23.854 60.79,24.771 61.921,24.771C63.052,24.771 63.969,23.854 63.969,22.723C63.969,17.775 59.952,13.758 55.005,13.758C50.057,13.758 46.04,17.775 46.04,22.723C46.04,23.854 46.958,24.771 48.088,24.771C49.219,24.771 50.137,23.854 50.137,22.723Z"/>
                </g>
                <g transform="matrix(0.081761,0.789168,-0.789168,0.081761,34.151,-12.9604)">
                    <path d="M49.327,22.723C49.327,19.589 51.871,17.045 55.005,17.045C58.138,17.045 60.682,19.589 60.682,22.723C60.682,23.406 61.237,23.961 61.921,23.961C62.604,23.961 63.159,23.406 63.159,22.723C63.159,18.222 59.505,14.568 55.005,14.568C50.504,14.568 46.85,18.222 46.85,22.723C46.85,23.406 47.405,23.961 48.088,23.961C48.772,23.961 49.327,23.406 49.327,22.723Z"/>
                </g>
                <g transform="matrix(0.277272,0.316219,-0.316219,0.277272,29.4007,7.69574)">
                    <path d="M50.425,22.723C50.425,20.195 52.477,18.143 55.005,18.143C57.532,18.143 59.584,20.195 59.584,22.723C59.584,24.012 60.631,25.059 61.921,25.059C63.21,25.059 64.257,24.012 64.257,22.723C64.257,17.616 60.111,13.47 55.005,13.47C49.898,13.47 45.752,17.616 45.752,22.723C45.752,24.012 46.799,25.059 48.088,25.059C49.378,25.059 50.425,24.012 50.425,22.723Z"/>
                </g>
                <g transform="matrix(-0.438121,-0.307036,0.307036,-0.438121,68.0244,68.2949)">
                    <path d="M49.925,22.723C49.925,19.919 52.201,17.643 55.005,17.643C57.808,17.643 60.084,19.919 60.084,22.723C60.084,23.737 60.907,24.56 61.921,24.56C62.935,24.56 63.758,23.737 63.758,22.723C63.758,17.892 59.836,13.97 55.005,13.97C50.174,13.97 46.252,17.892 46.252,22.723C46.252,23.737 47.075,24.56 48.088,24.56C49.102,24.56 49.925,23.737 49.925,22.723Z"/>
                </g>
                <g transform="matrix(-0.209862,0.213524,-0.213524,-0.209862,61.5276,15.4348)">
                    <path d="M51.37,22.723C51.37,20.717 52.999,19.089 55.005,19.089C57.01,19.089 58.639,20.717 58.639,22.723C58.639,24.534 60.109,26.005 61.921,26.005C63.732,26.005 65.203,24.534 65.203,22.723C65.203,17.094 60.633,12.524 55.005,12.524C49.376,12.524 44.806,17.094 44.806,22.723C44.806,24.534 46.277,26.005 48.088,26.005C49.9,26.005 51.37,24.534 51.37,22.723Z"/>
                </g>
                <g transform="matrix(-0.104501,0.390004,-0.390004,-0.104501,38.51,26.4543)">
                    <path d="M50.522,22.723C50.522,20.249 52.531,18.24 55.005,18.24C57.479,18.24 59.487,20.249 59.487,22.723C59.487,24.066 60.578,25.157 61.921,25.157C63.264,25.157 64.355,24.066 64.355,22.723C64.355,17.562 60.165,13.373 55.005,13.373C49.844,13.373 45.655,17.562 45.655,22.723C45.655,24.066 46.745,25.157 48.088,25.157C49.432,25.157 50.522,24.066 50.522,22.723Z"/>
                </g>
                <g transform="matrix(-0.200853,0.145991,-0.145991,-0.200853,47.4251,35.3069)">
                    <path d="M52.046,22.723C52.046,21.09 53.372,19.764 55.005,19.764C56.638,19.764 57.964,21.09 57.964,22.723C57.964,24.907 59.737,26.68 61.921,26.68C64.105,26.68 65.878,24.907 65.878,22.723C65.878,16.722 61.006,11.849 55.005,11.849C49.003,11.849 44.131,16.722 44.131,22.723C44.131,24.907 45.904,26.68 48.088,26.68C50.272,26.68 52.046,24.907 52.046,22.723Z"/>
                </g>
                <g transform="matrix(0.328565,-0.71718,0.71718,0.328565,5.18494,82.5899)">
                    <path d="M49.334,22.723C49.334,19.593 51.875,17.052 55.005,17.052C58.134,17.052 60.675,19.593 60.675,22.723C60.675,23.41 61.233,23.969 61.921,23.969C62.608,23.969 63.167,23.41 63.167,22.723C63.167,18.218 59.509,14.561 55.005,14.561C50.5,14.561 46.843,18.218 46.843,22.723C46.843,23.41 47.401,23.969 48.088,23.969C48.776,23.969 49.334,23.41 49.334,22.723Z"/>
                </g>
                <g transform="matrix(-0.387801,0.297417,-0.297417,-0.387801,78.4477,23.4791)">
                    <path d="M50.099,22.723C50.099,20.015 52.297,17.817 55.005,17.817C57.712,17.817 59.91,20.015 59.91,22.723C59.91,23.833 60.811,24.734 61.921,24.734C63.031,24.734 63.932,23.833 63.932,22.723C63.932,17.796 59.932,13.796 55.005,13.796C50.078,13.796 46.078,17.796 46.078,22.723C46.078,23.833 46.979,24.734 48.088,24.734C49.198,24.734 50.099,23.833 50.099,22.723Z"/>
                </g>
            </g>
        </g>
    </g>
</svg>
