<?xml version="1.0" encoding="UTF-8" standalone="no"?>
<!DOCTYPE svg PUBLIC "-//W3C//DTD SVG 1.1//EN" "http://www.w3.org/Graphics/SVG/1.1/DTD/svg11.dtd">
<svg width="100%" height="100%" viewBox="0 0 226 81" version="1.1" xmlns="http://www.w3.org/2000/svg" xmlns:xlink="http://www.w3.org/1999/xlink" xml:space="preserve" xmlns:serif="http://www.serif.com/" style="fill-rule:evenodd;clip-rule:evenodd;stroke-linejoin:round;stroke-miterlimit:2;">
    <g transform="matrix(2.31963,0,0,2.31963,-255.664,-88.2794)">
        <g transform="matrix(27.2797,0,0,27.2797,152.227,59.9216)">
            <path d="M0.706,-0.729C0.71,-0.707 0.713,-0.684 0.715,-0.661C0.717,-0.637 0.719,-0.608 0.721,-0.574C0.722,-0.54 0.723,-0.517 0.724,-0.504C0.736,-0.357 0.746,-0.198 0.755,-0.027C0.756,-0.02 0.753,-0.014 0.748,-0.009C0.743,-0.004 0.737,-0.001 0.73,-0.002C0.549,-0.011 0.368,-0.011 0.187,-0.002C0.178,-0.001 0.172,-0.005 0.168,-0.012C0.163,-0.019 0.162,-0.026 0.163,-0.034C0.167,-0.06 0.166,-0.088 0.159,-0.118C0.152,-0.149 0.138,-0.169 0.118,-0.178C0.089,-0.191 0.074,-0.177 0.073,-0.135C0.073,-0.113 0.077,-0.083 0.084,-0.046C0.086,-0.036 0.083,-0.028 0.076,-0.021C0.069,-0.015 0.061,-0.013 0.051,-0.015C0.043,-0.017 0.037,-0.023 0.036,-0.033C0.033,-0.045 0.032,-0.054 0.031,-0.061C0.029,-0.067 0.028,-0.078 0.026,-0.093C0.024,-0.108 0.023,-0.12 0.023,-0.13C0.023,-0.139 0.023,-0.151 0.024,-0.165C0.025,-0.178 0.027,-0.189 0.031,-0.198C0.035,-0.206 0.04,-0.214 0.046,-0.222C0.051,-0.23 0.059,-0.235 0.069,-0.238C0.079,-0.241 0.091,-0.241 0.104,-0.238C0.13,-0.234 0.152,-0.222 0.17,-0.202C0.187,-0.181 0.199,-0.159 0.206,-0.134C0.213,-0.109 0.216,-0.082 0.215,-0.054C0.378,-0.062 0.541,-0.062 0.704,-0.054C0.7,-0.125 0.693,-0.233 0.684,-0.376C0.679,-0.458 0.674,-0.517 0.671,-0.554L0.665,-0.633C0.665,-0.635 0.664,-0.642 0.663,-0.653C0.661,-0.664 0.659,-0.674 0.658,-0.684C0.657,-0.694 0.656,-0.704 0.657,-0.714C0.657,-0.723 0.658,-0.729 0.661,-0.73C0.652,-0.725 0.644,-0.725 0.636,-0.73C0.629,-0.735 0.625,-0.741 0.625,-0.75C0.624,-0.759 0.628,-0.766 0.636,-0.773C0.648,-0.781 0.659,-0.784 0.669,-0.781C0.679,-0.778 0.687,-0.771 0.694,-0.762C0.7,-0.753 0.704,-0.742 0.706,-0.729Z" style="fill-rule:nonzero;"/>
        </g>
        <g transform="matrix(27.2797,0,0,27.2797,173.56,59.9216)">
            <path d="M0.095,0.014C0.097,0.028 0.091,0.036 0.077,0.038C0.063,0.039 0.053,0.034 0.048,0.022C0.047,0.02 0.046,0.018 0.046,0.015C0.043,-0.008 0.041,-0.031 0.041,-0.053C0.041,-0.075 0.043,-0.099 0.049,-0.124C0.054,-0.149 0.064,-0.171 0.079,-0.188C0.094,-0.205 0.113,-0.216 0.138,-0.221C0.158,-0.225 0.174,-0.221 0.187,-0.21C0.199,-0.198 0.206,-0.181 0.21,-0.159C0.213,-0.136 0.214,-0.115 0.214,-0.094C0.213,-0.073 0.211,-0.051 0.208,-0.029C0.248,-0.032 0.308,-0.035 0.388,-0.04C0.468,-0.044 0.528,-0.047 0.568,-0.049C0.565,-0.14 0.563,-0.21 0.561,-0.258C0.494,-0.259 0.428,-0.256 0.361,-0.249C0.354,-0.249 0.347,-0.253 0.342,-0.26C0.337,-0.267 0.335,-0.275 0.337,-0.282C0.338,-0.283 0.339,-0.286 0.341,-0.293L0.349,-0.32C0.351,-0.327 0.352,-0.332 0.353,-0.335C0.353,-0.338 0.353,-0.343 0.354,-0.349C0.355,-0.355 0.355,-0.36 0.354,-0.364C0.353,-0.367 0.353,-0.372 0.352,-0.377C0.351,-0.382 0.35,-0.386 0.347,-0.389C0.344,-0.392 0.341,-0.396 0.338,-0.399C0.324,-0.412 0.312,-0.416 0.303,-0.413C0.293,-0.41 0.287,-0.402 0.285,-0.389C0.283,-0.376 0.281,-0.363 0.28,-0.35C0.279,-0.337 0.279,-0.327 0.281,-0.32C0.282,-0.309 0.279,-0.302 0.271,-0.298C0.263,-0.294 0.255,-0.294 0.246,-0.298C0.237,-0.302 0.232,-0.309 0.231,-0.32C0.23,-0.336 0.23,-0.353 0.233,-0.37C0.235,-0.387 0.239,-0.404 0.246,-0.42C0.253,-0.436 0.263,-0.448 0.278,-0.456C0.292,-0.464 0.309,-0.466 0.329,-0.461C0.353,-0.456 0.371,-0.444 0.383,-0.427C0.395,-0.409 0.401,-0.39 0.401,-0.369C0.401,-0.347 0.399,-0.326 0.396,-0.304C0.461,-0.309 0.515,-0.311 0.559,-0.31C0.553,-0.446 0.545,-0.582 0.535,-0.719C0.534,-0.73 0.538,-0.737 0.546,-0.741C0.554,-0.745 0.562,-0.745 0.571,-0.741C0.58,-0.737 0.584,-0.73 0.585,-0.719C0.602,-0.496 0.613,-0.265 0.619,-0.027C0.619,-0.02 0.617,-0.015 0.612,-0.01C0.607,-0.005 0.601,-0.003 0.594,-0.002C0.549,0.001 0.48,0.004 0.388,0.009C0.295,0.014 0.225,0.018 0.178,0.021C0.17,0.022 0.164,0.018 0.159,0.011C0.154,0.004 0.153,-0.003 0.154,-0.011C0.163,-0.05 0.165,-0.086 0.161,-0.121C0.161,-0.122 0.161,-0.125 0.16,-0.128C0.159,-0.137 0.158,-0.143 0.157,-0.148C0.156,-0.153 0.154,-0.158 0.152,-0.163C0.149,-0.168 0.146,-0.17 0.141,-0.169C0.136,-0.168 0.129,-0.165 0.122,-0.158C0.111,-0.149 0.103,-0.139 0.098,-0.126C0.092,-0.113 0.089,-0.098 0.089,-0.081C0.088,-0.064 0.088,-0.05 0.089,-0.039C0.09,-0.028 0.091,-0.013 0.094,0.006C0.095,0.009 0.095,0.012 0.095,0.014Z" style="fill-rule:nonzero;"/>
        </g>
        <g transform="matrix(27.2797,0,0,27.2797,191.51,59.9216)">
            <path d="M0.223,-0.286C0.245,-0.258 0.259,-0.217 0.264,-0.163C0.265,-0.136 0.262,-0.111 0.254,-0.086C0.245,-0.062 0.231,-0.042 0.212,-0.025C0.192,-0.008 0.168,-0.001 0.14,-0.002C0.119,-0.003 0.101,-0.008 0.087,-0.019C0.074,-0.03 0.065,-0.043 0.061,-0.061C0.057,-0.078 0.055,-0.095 0.055,-0.113C0.055,-0.13 0.057,-0.148 0.062,-0.166C0.064,-0.176 0.07,-0.182 0.079,-0.184C0.087,-0.186 0.096,-0.184 0.102,-0.178C0.11,-0.171 0.112,-0.163 0.11,-0.153C0.11,-0.152 0.109,-0.149 0.108,-0.141C0.106,-0.135 0.105,-0.13 0.105,-0.128C0.104,-0.125 0.103,-0.121 0.102,-0.114C0.102,-0.107 0.101,-0.102 0.102,-0.099C0.102,-0.096 0.102,-0.092 0.103,-0.086C0.104,-0.082 0.105,-0.077 0.107,-0.073C0.109,-0.069 0.112,-0.066 0.115,-0.063C0.128,-0.052 0.142,-0.049 0.158,-0.054C0.173,-0.059 0.186,-0.067 0.195,-0.08C0.21,-0.103 0.217,-0.133 0.215,-0.168C0.212,-0.203 0.203,-0.231 0.186,-0.253C0.177,-0.264 0.162,-0.28 0.14,-0.301C0.117,-0.322 0.102,-0.339 0.093,-0.352C0.073,-0.383 0.059,-0.419 0.052,-0.46C0.046,-0.491 0.043,-0.534 0.043,-0.587L0.042,-0.625C0.042,-0.63 0.042,-0.636 0.043,-0.645C0.044,-0.653 0.045,-0.66 0.046,-0.665C0.047,-0.67 0.049,-0.676 0.051,-0.683C0.054,-0.689 0.057,-0.695 0.06,-0.7C0.075,-0.725 0.099,-0.738 0.13,-0.74C0.161,-0.742 0.186,-0.732 0.206,-0.711C0.213,-0.704 0.215,-0.696 0.212,-0.687C0.209,-0.678 0.203,-0.672 0.195,-0.67C0.187,-0.667 0.179,-0.669 0.171,-0.676C0.153,-0.692 0.137,-0.696 0.122,-0.687C0.107,-0.678 0.098,-0.662 0.095,-0.641C0.094,-0.632 0.093,-0.607 0.093,-0.565C0.093,-0.5 0.102,-0.447 0.12,-0.406C0.129,-0.386 0.147,-0.363 0.173,-0.337C0.201,-0.31 0.217,-0.293 0.223,-0.286Z" style="fill-rule:nonzero;"/>
        </g>
        <g transform="matrix(27.2797,0,0,27.2797,199.258,59.9216)">
            <path d="M0.023,-0.236C0.025,-0.268 0.037,-0.294 0.058,-0.314C0.079,-0.333 0.103,-0.335 0.132,-0.319C0.143,-0.313 0.146,-0.304 0.143,-0.292C0.172,-0.266 0.182,-0.203 0.173,-0.103C0.171,-0.084 0.165,-0.065 0.156,-0.048C0.147,-0.03 0.134,-0.016 0.117,-0.007C0.101,0.003 0.082,0.003 0.061,-0.008C0.037,-0.019 0.024,-0.047 0.023,-0.09C0.02,-0.149 0.02,-0.197 0.023,-0.236ZM0.123,-0.105C0.125,-0.119 0.125,-0.134 0.124,-0.151C0.124,-0.152 0.124,-0.158 0.125,-0.17C0.125,-0.182 0.125,-0.191 0.125,-0.198C0.124,-0.205 0.123,-0.213 0.122,-0.224C0.121,-0.234 0.118,-0.242 0.115,-0.248C0.111,-0.253 0.106,-0.256 0.101,-0.257C0.092,-0.259 0.086,-0.264 0.084,-0.272C0.081,-0.269 0.079,-0.264 0.077,-0.257C0.075,-0.25 0.074,-0.243 0.074,-0.234C0.073,-0.225 0.073,-0.218 0.073,-0.212C0.072,-0.206 0.072,-0.199 0.073,-0.191C0.073,-0.183 0.073,-0.179 0.073,-0.179C0.073,-0.174 0.072,-0.164 0.071,-0.149C0.07,-0.134 0.069,-0.121 0.069,-0.11C0.069,-0.099 0.07,-0.089 0.073,-0.082C0.071,-0.062 0.086,-0.061 0.118,-0.079C0.121,-0.088 0.123,-0.096 0.123,-0.105Z" style="fill-rule:nonzero;"/>
        </g>
        <g transform="matrix(10,0,0,10,148.966,70.1072)">
            <path d="M0.045,-0.505C0.046,-0.513 0.049,-0.519 0.054,-0.523C0.059,-0.527 0.065,-0.529 0.071,-0.529C0.078,-0.529 0.084,-0.528 0.089,-0.524C0.094,-0.52 0.097,-0.515 0.098,-0.507C0.101,-0.46 0.104,-0.413 0.106,-0.365C0.109,-0.318 0.11,-0.271 0.11,-0.224L0.11,-0.164C0.11,-0.137 0.109,-0.111 0.106,-0.085C0.103,-0.06 0.095,-0.035 0.082,-0.013C0.079,-0.008 0.076,-0.005 0.071,-0.004C0.066,-0.003 0.061,-0.002 0.056,-0.003C0.051,-0.004 0.047,-0.007 0.042,-0.01C0.038,-0.013 0.036,-0.017 0.035,-0.022C0.035,-0.027 0.034,-0.032 0.034,-0.036L0.034,-0.051C0.034,-0.068 0.035,-0.085 0.037,-0.102C0.038,-0.119 0.04,-0.135 0.041,-0.152C0.042,-0.171 0.044,-0.188 0.045,-0.206C0.046,-0.223 0.047,-0.241 0.047,-0.259C0.047,-0.268 0.047,-0.277 0.046,-0.287C0.046,-0.296 0.046,-0.305 0.045,-0.314C0.044,-0.333 0.044,-0.352 0.043,-0.37C0.043,-0.388 0.043,-0.406 0.043,-0.424L0.043,-0.464C0.043,-0.478 0.044,-0.492 0.045,-0.505ZM0.048,-0.688C0.049,-0.688 0.051,-0.687 0.053,-0.687C0.055,-0.687 0.056,-0.686 0.058,-0.685C0.067,-0.689 0.076,-0.691 0.087,-0.691C0.097,-0.691 0.106,-0.689 0.113,-0.684C0.121,-0.678 0.126,-0.671 0.127,-0.664C0.129,-0.656 0.13,-0.649 0.13,-0.642L0.13,-0.636C0.13,-0.63 0.128,-0.625 0.125,-0.62C0.121,-0.616 0.117,-0.613 0.113,-0.611C0.103,-0.606 0.092,-0.602 0.081,-0.6C0.069,-0.598 0.059,-0.601 0.049,-0.61C0.044,-0.614 0.038,-0.619 0.033,-0.626C0.028,-0.634 0.024,-0.64 0.021,-0.646C0.018,-0.65 0.017,-0.655 0.018,-0.66C0.019,-0.665 0.021,-0.67 0.024,-0.674C0.027,-0.679 0.03,-0.682 0.035,-0.685C0.039,-0.687 0.043,-0.688 0.048,-0.688Z" style="fill-rule:nonzero;"/>
        </g>
        <g transform="matrix(10,0,0,10,150.509,70.1072)">
            <path d="M0.372,-0.533C0.408,-0.537 0.437,-0.532 0.459,-0.517C0.482,-0.502 0.499,-0.48 0.512,-0.453C0.524,-0.426 0.532,-0.394 0.537,-0.359C0.541,-0.323 0.543,-0.288 0.543,-0.252C0.543,-0.228 0.542,-0.204 0.542,-0.182C0.541,-0.159 0.539,-0.138 0.538,-0.119C0.537,-0.105 0.537,-0.093 0.537,-0.081C0.536,-0.069 0.536,-0.059 0.536,-0.05C0.536,-0.04 0.533,-0.033 0.527,-0.028C0.521,-0.024 0.514,-0.021 0.507,-0.021C0.498,-0.021 0.49,-0.024 0.483,-0.03C0.476,-0.035 0.473,-0.044 0.473,-0.055C0.473,-0.067 0.473,-0.079 0.473,-0.091C0.473,-0.103 0.474,-0.116 0.475,-0.128C0.475,-0.142 0.476,-0.158 0.476,-0.175C0.476,-0.192 0.477,-0.207 0.477,-0.222C0.477,-0.248 0.476,-0.274 0.474,-0.302C0.473,-0.313 0.471,-0.328 0.468,-0.349C0.465,-0.369 0.46,-0.389 0.454,-0.408C0.447,-0.428 0.44,-0.445 0.43,-0.459C0.421,-0.474 0.409,-0.481 0.396,-0.481C0.388,-0.481 0.381,-0.479 0.374,-0.476C0.366,-0.472 0.358,-0.465 0.349,-0.456C0.338,-0.445 0.328,-0.432 0.321,-0.417C0.314,-0.403 0.308,-0.387 0.303,-0.37C0.307,-0.351 0.31,-0.332 0.312,-0.312C0.313,-0.292 0.313,-0.272 0.313,-0.252C0.313,-0.229 0.313,-0.207 0.311,-0.185C0.309,-0.163 0.308,-0.142 0.307,-0.12C0.305,-0.103 0.304,-0.086 0.304,-0.069C0.303,-0.053 0.302,-0.037 0.302,-0.021C0.302,-0.014 0.299,-0.009 0.292,-0.007C0.286,-0.004 0.28,-0.003 0.272,-0.003C0.265,-0.004 0.258,-0.006 0.252,-0.009C0.245,-0.013 0.242,-0.018 0.242,-0.024C0.242,-0.034 0.242,-0.044 0.241,-0.057C0.24,-0.069 0.239,-0.082 0.238,-0.097C0.236,-0.119 0.235,-0.143 0.233,-0.169C0.231,-0.195 0.23,-0.222 0.23,-0.249C0.23,-0.274 0.231,-0.298 0.233,-0.323C0.235,-0.347 0.239,-0.37 0.243,-0.392C0.241,-0.403 0.239,-0.413 0.235,-0.423C0.232,-0.433 0.228,-0.44 0.222,-0.446C0.204,-0.465 0.188,-0.474 0.174,-0.474C0.162,-0.474 0.151,-0.467 0.14,-0.455C0.129,-0.443 0.119,-0.429 0.111,-0.414C0.113,-0.408 0.113,-0.402 0.113,-0.395L0.113,-0.374C0.113,-0.364 0.113,-0.355 0.112,-0.345C0.112,-0.336 0.111,-0.327 0.11,-0.318C0.11,-0.314 0.109,-0.31 0.109,-0.306L0.109,-0.295C0.109,-0.287 0.108,-0.279 0.108,-0.271L0.108,-0.246C0.108,-0.207 0.106,-0.166 0.103,-0.124C0.1,-0.082 0.091,-0.043 0.075,-0.008C0.072,-0.003 0.068,0.001 0.063,0.003C0.057,0.005 0.052,0.006 0.046,0.005C0.041,0.004 0.036,0.002 0.032,-0.002C0.028,-0.006 0.025,-0.011 0.024,-0.019C0.023,-0.042 0.024,-0.066 0.026,-0.091C0.029,-0.116 0.032,-0.14 0.036,-0.164C0.039,-0.18 0.041,-0.195 0.043,-0.209C0.046,-0.224 0.048,-0.239 0.049,-0.254L0.049,-0.272C0.049,-0.28 0.049,-0.286 0.05,-0.291L0.052,-0.321C0.043,-0.326 0.039,-0.333 0.039,-0.342C0.04,-0.357 0.043,-0.375 0.05,-0.396C0.05,-0.396 0.05,-0.397 0.049,-0.397C0.049,-0.397 0.049,-0.398 0.049,-0.398L0.049,-0.402L0.045,-0.421C0.045,-0.424 0.045,-0.425 0.045,-0.427C0.043,-0.436 0.041,-0.445 0.04,-0.456C0.039,-0.466 0.039,-0.475 0.04,-0.484C0.041,-0.492 0.045,-0.498 0.051,-0.501C0.057,-0.505 0.064,-0.505 0.072,-0.501C0.082,-0.492 0.09,-0.483 0.095,-0.476C0.108,-0.491 0.122,-0.504 0.138,-0.514C0.153,-0.524 0.17,-0.529 0.187,-0.529C0.202,-0.529 0.217,-0.524 0.231,-0.514C0.245,-0.503 0.258,-0.487 0.27,-0.464C0.281,-0.483 0.294,-0.498 0.311,-0.511C0.327,-0.523 0.347,-0.531 0.372,-0.533Z" style="fill-rule:nonzero;"/>
        </g>
        <g transform="matrix(10,0,0,10,156.339,70.1072)">
            <path d="M0.366,-0.092C0.373,-0.097 0.379,-0.099 0.386,-0.098C0.392,-0.096 0.397,-0.093 0.401,-0.089C0.405,-0.084 0.407,-0.079 0.408,-0.072C0.408,-0.065 0.405,-0.058 0.399,-0.052C0.375,-0.029 0.354,-0.018 0.336,-0.018C0.317,-0.018 0.302,-0.026 0.29,-0.043C0.278,-0.06 0.268,-0.082 0.26,-0.109C0.256,-0.098 0.251,-0.087 0.245,-0.076C0.239,-0.064 0.232,-0.054 0.225,-0.043C0.217,-0.033 0.208,-0.024 0.199,-0.017C0.19,-0.009 0.18,-0.004 0.169,-0.001C0.144,0.004 0.121,-0.001 0.102,-0.015C0.082,-0.029 0.066,-0.048 0.053,-0.07C0.04,-0.093 0.03,-0.118 0.024,-0.144C0.018,-0.17 0.015,-0.192 0.017,-0.211C0.019,-0.233 0.021,-0.258 0.025,-0.285C0.028,-0.313 0.034,-0.34 0.041,-0.366C0.048,-0.393 0.058,-0.418 0.07,-0.442C0.082,-0.466 0.097,-0.486 0.116,-0.502L0.115,-0.502C0.126,-0.511 0.138,-0.518 0.15,-0.522C0.162,-0.526 0.174,-0.528 0.185,-0.528C0.205,-0.528 0.225,-0.522 0.243,-0.51C0.261,-0.497 0.274,-0.481 0.282,-0.46C0.285,-0.457 0.287,-0.454 0.288,-0.451C0.289,-0.449 0.29,-0.445 0.29,-0.44L0.29,-0.435C0.291,-0.429 0.292,-0.424 0.292,-0.417C0.292,-0.41 0.292,-0.405 0.291,-0.399C0.291,-0.399 0.291,-0.398 0.291,-0.397C0.29,-0.397 0.29,-0.396 0.29,-0.396C0.29,-0.383 0.29,-0.371 0.29,-0.359C0.289,-0.348 0.289,-0.336 0.289,-0.323C0.289,-0.294 0.29,-0.264 0.292,-0.234C0.293,-0.223 0.294,-0.208 0.295,-0.191C0.297,-0.174 0.299,-0.157 0.303,-0.14C0.306,-0.124 0.311,-0.109 0.316,-0.098C0.322,-0.086 0.33,-0.08 0.339,-0.08C0.347,-0.08 0.356,-0.084 0.366,-0.092ZM0.219,-0.14C0.224,-0.159 0.227,-0.177 0.229,-0.195C0.23,-0.213 0.23,-0.231 0.23,-0.25L0.23,-0.308L0.229,-0.366C0.229,-0.379 0.23,-0.392 0.23,-0.405C0.231,-0.417 0.232,-0.43 0.233,-0.443C0.233,-0.444 0.234,-0.444 0.234,-0.444C0.234,-0.444 0.234,-0.444 0.234,-0.445C0.227,-0.455 0.219,-0.463 0.21,-0.469C0.202,-0.475 0.192,-0.479 0.182,-0.479C0.169,-0.479 0.158,-0.473 0.148,-0.463C0.138,-0.452 0.129,-0.439 0.121,-0.423C0.113,-0.408 0.107,-0.393 0.102,-0.378C0.093,-0.351 0.086,-0.322 0.079,-0.292C0.073,-0.263 0.069,-0.234 0.067,-0.207C0.067,-0.187 0.07,-0.165 0.078,-0.14C0.085,-0.116 0.095,-0.095 0.107,-0.079C0.114,-0.072 0.121,-0.066 0.127,-0.062C0.134,-0.058 0.141,-0.056 0.146,-0.056C0.154,-0.056 0.162,-0.058 0.169,-0.063C0.176,-0.068 0.183,-0.074 0.189,-0.083C0.196,-0.091 0.202,-0.1 0.207,-0.11C0.211,-0.12 0.215,-0.13 0.219,-0.14Z" style="fill-rule:nonzero;"/>
        </g>
        <g transform="matrix(10,0,0,10,160.665,70.1072)">
            <path d="M0.325,-0.55C0.333,-0.549 0.339,-0.546 0.344,-0.541C0.348,-0.535 0.351,-0.529 0.351,-0.522C0.351,-0.515 0.35,-0.509 0.346,-0.502C0.342,-0.496 0.336,-0.493 0.327,-0.492C0.314,-0.49 0.303,-0.488 0.293,-0.484C0.283,-0.481 0.273,-0.476 0.264,-0.47C0.28,-0.451 0.291,-0.43 0.297,-0.405C0.304,-0.38 0.307,-0.354 0.307,-0.328C0.307,-0.312 0.305,-0.295 0.303,-0.279C0.3,-0.262 0.297,-0.247 0.292,-0.233C0.286,-0.219 0.279,-0.205 0.27,-0.191C0.26,-0.177 0.25,-0.164 0.239,-0.153C0.228,-0.141 0.216,-0.132 0.203,-0.125C0.19,-0.117 0.177,-0.113 0.163,-0.111C0.161,-0.105 0.157,-0.1 0.15,-0.098C0.139,-0.094 0.13,-0.09 0.122,-0.084C0.114,-0.078 0.108,-0.072 0.104,-0.064C0.119,-0.055 0.137,-0.044 0.156,-0.031C0.175,-0.017 0.193,-0.003 0.209,0.013C0.225,0.028 0.239,0.045 0.25,0.062C0.261,0.079 0.267,0.097 0.267,0.114C0.267,0.128 0.263,0.141 0.255,0.154C0.247,0.167 0.235,0.18 0.218,0.191C0.206,0.199 0.193,0.205 0.178,0.21C0.164,0.215 0.149,0.218 0.135,0.218C0.117,0.218 0.099,0.214 0.082,0.206C0.064,0.198 0.05,0.185 0.039,0.167C0.033,0.158 0.029,0.149 0.027,0.14C0.025,0.131 0.023,0.122 0.023,0.113C0.023,0.094 0.029,0.077 0.04,0.061C0.05,0.045 0.065,0.032 0.084,0.021C0.09,0.018 0.097,0.019 0.103,0.023C0.109,0.028 0.114,0.034 0.118,0.041C0.121,0.048 0.123,0.056 0.123,0.063C0.123,0.07 0.12,0.076 0.113,0.079C0.097,0.089 0.089,0.101 0.089,0.115C0.089,0.128 0.095,0.139 0.107,0.148C0.119,0.158 0.133,0.16 0.15,0.156C0.165,0.153 0.179,0.147 0.19,0.139C0.201,0.131 0.207,0.121 0.207,0.109C0.207,0.1 0.203,0.09 0.195,0.082C0.178,0.059 0.158,0.04 0.134,0.024C0.111,0.009 0.086,-0.007 0.062,-0.022L0.052,-0.029L0.053,-0.028C0.048,-0.032 0.044,-0.036 0.042,-0.042C0.04,-0.049 0.04,-0.055 0.043,-0.062L0.042,-0.061C0.047,-0.077 0.054,-0.092 0.062,-0.104C0.069,-0.115 0.08,-0.125 0.093,-0.132L0.069,-0.151C0.052,-0.169 0.04,-0.189 0.032,-0.213C0.024,-0.236 0.02,-0.26 0.02,-0.285C0.02,-0.311 0.023,-0.336 0.031,-0.362C0.039,-0.388 0.049,-0.411 0.063,-0.432C0.074,-0.449 0.087,-0.464 0.104,-0.479C0.12,-0.494 0.138,-0.502 0.159,-0.503L0.172,-0.503C0.18,-0.508 0.19,-0.51 0.201,-0.508C0.203,-0.507 0.205,-0.507 0.208,-0.506C0.21,-0.505 0.213,-0.505 0.216,-0.504C0.229,-0.518 0.246,-0.53 0.266,-0.539C0.286,-0.547 0.306,-0.551 0.325,-0.55ZM0.107,-0.199C0.116,-0.191 0.124,-0.185 0.131,-0.182C0.139,-0.178 0.146,-0.177 0.153,-0.177C0.167,-0.177 0.18,-0.182 0.191,-0.191C0.203,-0.201 0.213,-0.214 0.222,-0.229C0.231,-0.245 0.238,-0.263 0.243,-0.282C0.248,-0.301 0.25,-0.32 0.25,-0.34C0.25,-0.355 0.248,-0.369 0.245,-0.382C0.242,-0.396 0.236,-0.408 0.228,-0.419C0.223,-0.417 0.218,-0.417 0.214,-0.42L0.215,-0.42C0.21,-0.421 0.205,-0.423 0.201,-0.425C0.197,-0.428 0.193,-0.43 0.189,-0.433C0.183,-0.437 0.176,-0.441 0.17,-0.443C0.163,-0.446 0.156,-0.445 0.147,-0.44C0.136,-0.433 0.127,-0.424 0.119,-0.413C0.111,-0.402 0.104,-0.39 0.101,-0.378C0.095,-0.364 0.09,-0.349 0.086,-0.332C0.082,-0.314 0.08,-0.297 0.08,-0.28C0.08,-0.265 0.082,-0.25 0.086,-0.236C0.09,-0.222 0.097,-0.21 0.107,-0.199Z" style="fill-rule:nonzero;"/>
        </g>
        <g transform="matrix(10,0,0,10,164.552,70.1072)">
            <path d="M0.084,-0.253C0.083,-0.253 0.082,-0.254 0.081,-0.255C0.082,-0.234 0.084,-0.214 0.087,-0.195C0.091,-0.176 0.096,-0.159 0.104,-0.142C0.112,-0.125 0.123,-0.108 0.136,-0.093C0.149,-0.077 0.165,-0.067 0.184,-0.062C0.195,-0.058 0.203,-0.057 0.208,-0.057C0.216,-0.057 0.222,-0.059 0.228,-0.063C0.234,-0.068 0.238,-0.074 0.242,-0.082C0.246,-0.089 0.249,-0.097 0.251,-0.107C0.254,-0.116 0.256,-0.126 0.258,-0.137C0.259,-0.145 0.262,-0.15 0.268,-0.154C0.273,-0.158 0.278,-0.16 0.284,-0.161C0.289,-0.161 0.295,-0.159 0.3,-0.156C0.305,-0.152 0.308,-0.146 0.31,-0.139C0.311,-0.133 0.312,-0.127 0.313,-0.122C0.313,-0.117 0.313,-0.111 0.313,-0.105C0.313,-0.088 0.311,-0.072 0.305,-0.059C0.299,-0.046 0.291,-0.035 0.281,-0.026C0.271,-0.017 0.259,-0.01 0.246,-0.006C0.232,-0.001 0.218,0.001 0.204,0.001C0.181,0.001 0.159,-0.004 0.137,-0.015C0.115,-0.025 0.097,-0.041 0.081,-0.063C0.062,-0.09 0.046,-0.123 0.036,-0.161C0.025,-0.199 0.02,-0.238 0.02,-0.278C0.02,-0.316 0.025,-0.353 0.035,-0.389C0.045,-0.424 0.061,-0.455 0.083,-0.479C0.098,-0.496 0.114,-0.509 0.132,-0.517C0.15,-0.525 0.168,-0.529 0.185,-0.529C0.202,-0.529 0.219,-0.526 0.236,-0.518C0.252,-0.511 0.267,-0.5 0.28,-0.487C0.293,-0.474 0.304,-0.459 0.313,-0.442C0.323,-0.425 0.328,-0.406 0.33,-0.386C0.332,-0.36 0.33,-0.337 0.323,-0.317C0.316,-0.297 0.306,-0.28 0.293,-0.267C0.281,-0.253 0.265,-0.243 0.248,-0.235C0.23,-0.228 0.211,-0.225 0.19,-0.225C0.174,-0.225 0.156,-0.227 0.138,-0.231C0.119,-0.236 0.102,-0.243 0.084,-0.253ZM0.104,-0.404C0.099,-0.387 0.094,-0.369 0.089,-0.349C0.085,-0.328 0.082,-0.308 0.081,-0.287C0.087,-0.292 0.092,-0.294 0.097,-0.294C0.104,-0.294 0.112,-0.293 0.12,-0.292C0.127,-0.29 0.135,-0.288 0.144,-0.287C0.154,-0.286 0.165,-0.284 0.175,-0.282C0.186,-0.28 0.196,-0.279 0.205,-0.279C0.223,-0.279 0.236,-0.283 0.244,-0.291C0.255,-0.301 0.262,-0.312 0.266,-0.325C0.27,-0.337 0.272,-0.35 0.272,-0.363C0.272,-0.371 0.271,-0.38 0.27,-0.389C0.263,-0.411 0.251,-0.43 0.234,-0.445C0.217,-0.46 0.2,-0.468 0.182,-0.468C0.166,-0.468 0.151,-0.463 0.138,-0.452C0.124,-0.442 0.113,-0.426 0.104,-0.404Z" style="fill-rule:nonzero;"/>
        </g>
        <g transform="matrix(10,0,0,10,170.802,70.1072)">
            <path d="M0.319,-0.445C0.318,-0.438 0.314,-0.433 0.306,-0.43C0.299,-0.426 0.292,-0.427 0.287,-0.431C0.279,-0.437 0.273,-0.441 0.27,-0.443C0.267,-0.445 0.266,-0.446 0.266,-0.447C0.266,-0.447 0.266,-0.447 0.267,-0.446C0.268,-0.446 0.268,-0.446 0.267,-0.447C0.257,-0.456 0.247,-0.464 0.236,-0.47C0.226,-0.476 0.214,-0.476 0.201,-0.47L0.202,-0.47C0.188,-0.462 0.175,-0.454 0.163,-0.445C0.151,-0.436 0.14,-0.426 0.131,-0.414C0.115,-0.393 0.104,-0.371 0.096,-0.349C0.089,-0.327 0.085,-0.303 0.085,-0.275C0.085,-0.248 0.087,-0.219 0.09,-0.189C0.094,-0.16 0.103,-0.132 0.117,-0.108C0.121,-0.102 0.126,-0.095 0.133,-0.089C0.139,-0.082 0.146,-0.077 0.154,-0.072C0.162,-0.067 0.171,-0.063 0.18,-0.062C0.189,-0.06 0.198,-0.06 0.206,-0.062C0.226,-0.065 0.24,-0.075 0.247,-0.091C0.253,-0.107 0.257,-0.125 0.259,-0.144C0.259,-0.153 0.262,-0.16 0.268,-0.165C0.273,-0.17 0.28,-0.172 0.287,-0.172C0.295,-0.172 0.302,-0.169 0.309,-0.163C0.316,-0.157 0.319,-0.149 0.319,-0.139C0.318,-0.12 0.314,-0.103 0.308,-0.086C0.301,-0.069 0.292,-0.054 0.282,-0.041C0.271,-0.028 0.258,-0.018 0.244,-0.01C0.229,-0.002 0.213,0.002 0.195,0.002C0.186,0.002 0.177,0.001 0.167,-0.001C0.157,-0.004 0.147,-0.008 0.136,-0.014C0.115,-0.026 0.097,-0.042 0.083,-0.06C0.069,-0.079 0.058,-0.099 0.049,-0.121C0.041,-0.142 0.034,-0.165 0.031,-0.189C0.027,-0.214 0.025,-0.237 0.025,-0.26C0.025,-0.285 0.028,-0.309 0.032,-0.333C0.036,-0.356 0.043,-0.379 0.053,-0.4C0.063,-0.421 0.075,-0.441 0.09,-0.458C0.106,-0.476 0.124,-0.492 0.146,-0.506C0.158,-0.513 0.171,-0.519 0.186,-0.523C0.201,-0.528 0.216,-0.53 0.231,-0.53C0.243,-0.53 0.254,-0.529 0.265,-0.525C0.276,-0.522 0.285,-0.517 0.293,-0.51C0.302,-0.503 0.308,-0.495 0.313,-0.484C0.317,-0.474 0.319,-0.461 0.319,-0.446L0.319,-0.445Z" style="fill-rule:nonzero;"/>
        </g>
        <g transform="matrix(10,0,0,10,174.435,70.1072)">
            <path d="M0.368,-0.379C0.371,-0.363 0.374,-0.345 0.376,-0.327C0.379,-0.308 0.38,-0.288 0.38,-0.268C0.38,-0.244 0.378,-0.221 0.375,-0.197C0.372,-0.174 0.366,-0.152 0.358,-0.13C0.351,-0.109 0.34,-0.09 0.327,-0.072C0.314,-0.054 0.298,-0.039 0.278,-0.027C0.262,-0.017 0.247,-0.009 0.232,-0.005C0.217,-0 0.203,0.002 0.19,0.002C0.164,0.002 0.14,-0.006 0.118,-0.022C0.097,-0.038 0.079,-0.059 0.064,-0.084C0.049,-0.11 0.038,-0.139 0.03,-0.172C0.022,-0.204 0.019,-0.237 0.019,-0.271C0.019,-0.295 0.021,-0.319 0.025,-0.343C0.029,-0.366 0.036,-0.388 0.045,-0.408C0.054,-0.428 0.066,-0.446 0.08,-0.462C0.094,-0.478 0.11,-0.49 0.129,-0.499C0.158,-0.519 0.186,-0.529 0.213,-0.529C0.231,-0.529 0.249,-0.525 0.266,-0.518C0.283,-0.51 0.298,-0.499 0.312,-0.486C0.325,-0.472 0.337,-0.457 0.347,-0.438C0.356,-0.42 0.364,-0.4 0.368,-0.379ZM0.256,-0.079C0.279,-0.101 0.295,-0.128 0.304,-0.162C0.314,-0.195 0.318,-0.229 0.318,-0.263C0.318,-0.276 0.318,-0.29 0.316,-0.302C0.315,-0.315 0.313,-0.327 0.311,-0.34C0.309,-0.349 0.306,-0.359 0.304,-0.37C0.301,-0.38 0.298,-0.391 0.294,-0.401C0.29,-0.411 0.285,-0.42 0.279,-0.429C0.273,-0.438 0.266,-0.445 0.258,-0.451C0.251,-0.456 0.245,-0.46 0.239,-0.462C0.233,-0.464 0.227,-0.465 0.222,-0.465C0.211,-0.465 0.201,-0.463 0.192,-0.459C0.182,-0.455 0.173,-0.451 0.164,-0.446L0.141,-0.435C0.139,-0.433 0.136,-0.432 0.134,-0.432C0.131,-0.431 0.129,-0.431 0.127,-0.432C0.109,-0.411 0.097,-0.387 0.089,-0.359C0.082,-0.331 0.078,-0.302 0.078,-0.273C0.078,-0.249 0.081,-0.225 0.086,-0.201C0.089,-0.186 0.093,-0.17 0.1,-0.152C0.106,-0.135 0.114,-0.118 0.124,-0.103C0.134,-0.088 0.145,-0.075 0.157,-0.064C0.17,-0.054 0.183,-0.049 0.197,-0.049C0.216,-0.049 0.236,-0.059 0.256,-0.079Z" style="fill-rule:nonzero;"/>
        </g>
        <g transform="matrix(10,0,0,10,178.497,70.1072)">
            <path d="M0.372,-0.533C0.408,-0.537 0.437,-0.532 0.459,-0.517C0.482,-0.502 0.499,-0.48 0.512,-0.453C0.524,-0.426 0.532,-0.394 0.537,-0.359C0.541,-0.323 0.543,-0.288 0.543,-0.252C0.543,-0.228 0.542,-0.204 0.542,-0.182C0.541,-0.159 0.539,-0.138 0.538,-0.119C0.537,-0.105 0.537,-0.093 0.537,-0.081C0.536,-0.069 0.536,-0.059 0.536,-0.05C0.536,-0.04 0.533,-0.033 0.527,-0.028C0.521,-0.024 0.514,-0.021 0.507,-0.021C0.498,-0.021 0.49,-0.024 0.483,-0.03C0.476,-0.035 0.473,-0.044 0.473,-0.055C0.473,-0.067 0.473,-0.079 0.473,-0.091C0.473,-0.103 0.474,-0.116 0.475,-0.128C0.475,-0.142 0.476,-0.158 0.476,-0.175C0.476,-0.192 0.477,-0.207 0.477,-0.222C0.477,-0.248 0.476,-0.274 0.474,-0.302C0.473,-0.313 0.471,-0.328 0.468,-0.349C0.465,-0.369 0.46,-0.389 0.454,-0.408C0.447,-0.428 0.44,-0.445 0.43,-0.459C0.421,-0.474 0.409,-0.481 0.396,-0.481C0.388,-0.481 0.381,-0.479 0.374,-0.476C0.366,-0.472 0.358,-0.465 0.349,-0.456C0.338,-0.445 0.328,-0.432 0.321,-0.417C0.314,-0.403 0.308,-0.387 0.303,-0.37C0.307,-0.351 0.31,-0.332 0.312,-0.312C0.313,-0.292 0.313,-0.272 0.313,-0.252C0.313,-0.229 0.313,-0.207 0.311,-0.185C0.309,-0.163 0.308,-0.142 0.307,-0.12C0.305,-0.103 0.304,-0.086 0.304,-0.069C0.303,-0.053 0.302,-0.037 0.302,-0.021C0.302,-0.014 0.299,-0.009 0.292,-0.007C0.286,-0.004 0.28,-0.003 0.272,-0.003C0.265,-0.004 0.258,-0.006 0.252,-0.009C0.245,-0.013 0.242,-0.018 0.242,-0.024C0.242,-0.034 0.242,-0.044 0.241,-0.057C0.24,-0.069 0.239,-0.082 0.238,-0.097C0.236,-0.119 0.235,-0.143 0.233,-0.169C0.231,-0.195 0.23,-0.222 0.23,-0.249C0.23,-0.274 0.231,-0.298 0.233,-0.323C0.235,-0.347 0.239,-0.37 0.243,-0.392C0.241,-0.403 0.239,-0.413 0.235,-0.423C0.232,-0.433 0.228,-0.44 0.222,-0.446C0.204,-0.465 0.188,-0.474 0.174,-0.474C0.162,-0.474 0.151,-0.467 0.14,-0.455C0.129,-0.443 0.119,-0.429 0.111,-0.414C0.113,-0.408 0.113,-0.402 0.113,-0.395L0.113,-0.374C0.113,-0.364 0.113,-0.355 0.112,-0.345C0.112,-0.336 0.111,-0.327 0.11,-0.318C0.11,-0.314 0.109,-0.31 0.109,-0.306L0.109,-0.295C0.109,-0.287 0.108,-0.279 0.108,-0.271L0.108,-0.246C0.108,-0.207 0.106,-0.166 0.103,-0.124C0.1,-0.082 0.091,-0.043 0.075,-0.008C0.072,-0.003 0.068,0.001 0.063,0.003C0.057,0.005 0.052,0.006 0.046,0.005C0.041,0.004 0.036,0.002 0.032,-0.002C0.028,-0.006 0.025,-0.011 0.024,-0.019C0.023,-0.042 0.024,-0.066 0.026,-0.091C0.029,-0.116 0.032,-0.14 0.036,-0.164C0.039,-0.18 0.041,-0.195 0.043,-0.209C0.046,-0.224 0.048,-0.239 0.049,-0.254L0.049,-0.272C0.049,-0.28 0.049,-0.286 0.05,-0.291L0.052,-0.321C0.043,-0.326 0.039,-0.333 0.039,-0.342C0.04,-0.357 0.043,-0.375 0.05,-0.396C0.05,-0.396 0.05,-0.397 0.049,-0.397C0.049,-0.397 0.049,-0.398 0.049,-0.398L0.049,-0.402L0.045,-0.421C0.045,-0.424 0.045,-0.425 0.045,-0.427C0.043,-0.436 0.041,-0.445 0.04,-0.456C0.039,-0.466 0.039,-0.475 0.04,-0.484C0.041,-0.492 0.045,-0.498 0.051,-0.501C0.057,-0.505 0.064,-0.505 0.072,-0.501C0.082,-0.492 0.09,-0.483 0.095,-0.476C0.108,-0.491 0.122,-0.504 0.138,-0.514C0.153,-0.524 0.17,-0.529 0.187,-0.529C0.202,-0.529 0.217,-0.524 0.231,-0.514C0.245,-0.503 0.258,-0.487 0.27,-0.464C0.281,-0.483 0.294,-0.498 0.311,-0.511C0.327,-0.523 0.347,-0.531 0.372,-0.533Z" style="fill-rule:nonzero;"/>
        </g>
        <g transform="matrix(10,0,0,10,184.327,70.1072)">
            <path d="M0.358,-0.257C0.36,-0.234 0.359,-0.21 0.355,-0.186C0.352,-0.162 0.346,-0.138 0.338,-0.115C0.329,-0.092 0.318,-0.071 0.304,-0.052C0.289,-0.032 0.272,-0.016 0.252,-0.003L0.253,-0.003C0.243,0.004 0.233,0.009 0.223,0.012C0.212,0.014 0.202,0.016 0.191,0.016C0.153,0.016 0.12,0 0.094,-0.03L0.094,-0.028C0.094,0.009 0.093,0.046 0.091,0.083C0.09,0.119 0.087,0.156 0.082,0.193C0.083,0.184 0.081,0.176 0.076,0.17C0.071,0.164 0.065,0.16 0.059,0.159C0.052,0.158 0.045,0.159 0.039,0.163C0.032,0.167 0.027,0.173 0.024,0.182C0.033,0.144 0.039,0.105 0.042,0.066C0.046,0.027 0.048,-0.011 0.048,-0.049C0.048,-0.082 0.047,-0.114 0.045,-0.146C0.044,-0.178 0.042,-0.21 0.04,-0.242C0.039,-0.266 0.037,-0.289 0.036,-0.313C0.035,-0.337 0.034,-0.36 0.033,-0.384C0.021,-0.396 0.02,-0.409 0.027,-0.423L0.027,-0.422C0.028,-0.426 0.03,-0.429 0.032,-0.433L0.032,-0.486C0.033,-0.492 0.035,-0.496 0.039,-0.499C0.043,-0.501 0.047,-0.503 0.052,-0.503C0.056,-0.504 0.061,-0.503 0.064,-0.5C0.068,-0.497 0.071,-0.493 0.071,-0.487C0.071,-0.484 0.072,-0.481 0.072,-0.479C0.087,-0.494 0.102,-0.506 0.119,-0.515C0.136,-0.524 0.154,-0.528 0.172,-0.528C0.194,-0.528 0.217,-0.52 0.241,-0.503C0.259,-0.488 0.275,-0.471 0.289,-0.452C0.303,-0.432 0.314,-0.412 0.324,-0.391C0.334,-0.369 0.342,-0.347 0.347,-0.324C0.353,-0.301 0.356,-0.279 0.358,-0.257ZM0.261,-0.087C0.275,-0.108 0.286,-0.132 0.293,-0.159C0.3,-0.185 0.304,-0.212 0.304,-0.239C0.304,-0.252 0.303,-0.266 0.301,-0.279L0.301,-0.278C0.299,-0.293 0.296,-0.308 0.292,-0.324C0.287,-0.34 0.282,-0.356 0.275,-0.372C0.268,-0.388 0.26,-0.402 0.251,-0.416C0.242,-0.43 0.231,-0.441 0.22,-0.451C0.202,-0.464 0.187,-0.47 0.173,-0.47C0.154,-0.47 0.137,-0.462 0.121,-0.446C0.105,-0.43 0.091,-0.412 0.078,-0.392L0.082,-0.331L0.082,-0.332C0.084,-0.295 0.086,-0.26 0.088,-0.227C0.09,-0.193 0.091,-0.159 0.093,-0.122C0.093,-0.122 0.095,-0.122 0.096,-0.122C0.098,-0.121 0.099,-0.121 0.1,-0.12C0.105,-0.115 0.11,-0.11 0.114,-0.104C0.118,-0.099 0.123,-0.094 0.128,-0.089C0.135,-0.079 0.143,-0.07 0.15,-0.063C0.158,-0.055 0.167,-0.049 0.177,-0.046C0.195,-0.041 0.211,-0.043 0.226,-0.052C0.24,-0.061 0.252,-0.073 0.261,-0.087Z" style="fill-rule:nonzero;"/>
        </g>
        <g transform="matrix(10,0,0,10,188.175,70.1072)">
            <path d="M0.264,-0.509C0.27,-0.506 0.272,-0.5 0.272,-0.493C0.272,-0.486 0.271,-0.479 0.267,-0.472C0.263,-0.465 0.258,-0.459 0.252,-0.454C0.246,-0.45 0.24,-0.449 0.234,-0.451C0.225,-0.456 0.215,-0.458 0.204,-0.458C0.186,-0.458 0.171,-0.449 0.159,-0.431C0.147,-0.412 0.138,-0.389 0.132,-0.36C0.132,-0.351 0.133,-0.34 0.133,-0.33L0.133,-0.3C0.133,-0.277 0.132,-0.254 0.132,-0.23C0.131,-0.207 0.131,-0.184 0.13,-0.161C0.128,-0.117 0.127,-0.072 0.127,-0.025C0.126,-0.016 0.123,-0.009 0.117,-0.005C0.111,-0 0.104,0.002 0.097,0.002C0.09,0.002 0.083,-0 0.077,-0.005C0.07,-0.01 0.066,-0.016 0.064,-0.023C0.061,-0.038 0.058,-0.06 0.056,-0.087C0.054,-0.115 0.053,-0.146 0.053,-0.179C0.053,-0.194 0.053,-0.21 0.054,-0.227C0.055,-0.244 0.057,-0.262 0.059,-0.28C0.061,-0.298 0.063,-0.315 0.065,-0.333C0.067,-0.35 0.07,-0.366 0.072,-0.38C0.072,-0.391 0.071,-0.402 0.07,-0.412C0.069,-0.422 0.068,-0.431 0.066,-0.438C0.064,-0.446 0.063,-0.452 0.061,-0.457C0.059,-0.461 0.057,-0.462 0.055,-0.461C0.049,-0.459 0.044,-0.459 0.04,-0.46C0.035,-0.462 0.031,-0.465 0.027,-0.468C0.024,-0.472 0.022,-0.476 0.021,-0.481C0.021,-0.486 0.022,-0.491 0.026,-0.496C0.039,-0.513 0.052,-0.521 0.065,-0.521C0.076,-0.521 0.086,-0.517 0.093,-0.509C0.1,-0.5 0.106,-0.49 0.111,-0.477C0.122,-0.493 0.134,-0.507 0.147,-0.516C0.161,-0.526 0.177,-0.53 0.195,-0.53C0.217,-0.53 0.24,-0.523 0.264,-0.509Z" style="fill-rule:nonzero;"/>
        </g>
        <g transform="matrix(10,0,0,10,191.231,70.1072)">
            <path d="M0.084,-0.253C0.083,-0.253 0.082,-0.254 0.081,-0.255C0.082,-0.234 0.084,-0.214 0.087,-0.195C0.091,-0.176 0.096,-0.159 0.104,-0.142C0.112,-0.125 0.123,-0.108 0.136,-0.093C0.149,-0.077 0.165,-0.067 0.184,-0.062C0.195,-0.058 0.203,-0.057 0.208,-0.057C0.216,-0.057 0.222,-0.059 0.228,-0.063C0.234,-0.068 0.238,-0.074 0.242,-0.082C0.246,-0.089 0.249,-0.097 0.251,-0.107C0.254,-0.116 0.256,-0.126 0.258,-0.137C0.259,-0.145 0.262,-0.15 0.268,-0.154C0.273,-0.158 0.278,-0.16 0.284,-0.161C0.289,-0.161 0.295,-0.159 0.3,-0.156C0.305,-0.152 0.308,-0.146 0.31,-0.139C0.311,-0.133 0.312,-0.127 0.313,-0.122C0.313,-0.117 0.313,-0.111 0.313,-0.105C0.313,-0.088 0.311,-0.072 0.305,-0.059C0.299,-0.046 0.291,-0.035 0.281,-0.026C0.271,-0.017 0.259,-0.01 0.246,-0.006C0.232,-0.001 0.218,0.001 0.204,0.001C0.181,0.001 0.159,-0.004 0.137,-0.015C0.115,-0.025 0.097,-0.041 0.081,-0.063C0.062,-0.09 0.046,-0.123 0.036,-0.161C0.025,-0.199 0.02,-0.238 0.02,-0.278C0.02,-0.316 0.025,-0.353 0.035,-0.389C0.045,-0.424 0.061,-0.455 0.083,-0.479C0.098,-0.496 0.114,-0.509 0.132,-0.517C0.15,-0.525 0.168,-0.529 0.185,-0.529C0.202,-0.529 0.219,-0.526 0.236,-0.518C0.252,-0.511 0.267,-0.5 0.28,-0.487C0.293,-0.474 0.304,-0.459 0.313,-0.442C0.323,-0.425 0.328,-0.406 0.33,-0.386C0.332,-0.36 0.33,-0.337 0.323,-0.317C0.316,-0.297 0.306,-0.28 0.293,-0.267C0.281,-0.253 0.265,-0.243 0.248,-0.235C0.23,-0.228 0.211,-0.225 0.19,-0.225C0.174,-0.225 0.156,-0.227 0.138,-0.231C0.119,-0.236 0.102,-0.243 0.084,-0.253ZM0.104,-0.404C0.099,-0.387 0.094,-0.369 0.089,-0.349C0.085,-0.328 0.082,-0.308 0.081,-0.287C0.087,-0.292 0.092,-0.294 0.097,-0.294C0.104,-0.294 0.112,-0.293 0.12,-0.292C0.127,-0.29 0.135,-0.288 0.144,-0.287C0.154,-0.286 0.165,-0.284 0.175,-0.282C0.186,-0.28 0.196,-0.279 0.205,-0.279C0.223,-0.279 0.236,-0.283 0.244,-0.291C0.255,-0.301 0.262,-0.312 0.266,-0.325C0.27,-0.337 0.272,-0.35 0.272,-0.363C0.272,-0.371 0.271,-0.38 0.27,-0.389C0.263,-0.411 0.251,-0.43 0.234,-0.445C0.217,-0.46 0.2,-0.468 0.182,-0.468C0.166,-0.468 0.151,-0.463 0.138,-0.452C0.124,-0.442 0.113,-0.426 0.104,-0.404Z" style="fill-rule:nonzero;"/>
        </g>
        <g transform="matrix(10,0,0,10,194.728,70.1072)">
            <path d="M0.263,-0.454C0.265,-0.449 0.265,-0.444 0.263,-0.439C0.262,-0.434 0.259,-0.431 0.255,-0.428C0.251,-0.426 0.247,-0.425 0.242,-0.425C0.237,-0.425 0.232,-0.427 0.228,-0.432C0.215,-0.443 0.203,-0.452 0.191,-0.457C0.179,-0.462 0.167,-0.465 0.156,-0.465C0.136,-0.465 0.119,-0.458 0.105,-0.443C0.092,-0.429 0.085,-0.412 0.085,-0.393C0.085,-0.38 0.089,-0.366 0.096,-0.353C0.103,-0.34 0.114,-0.326 0.128,-0.313L0.157,-0.291C0.179,-0.274 0.2,-0.256 0.221,-0.238C0.242,-0.219 0.257,-0.196 0.267,-0.167L0.267,-0.168C0.27,-0.159 0.272,-0.151 0.273,-0.144C0.275,-0.136 0.275,-0.129 0.275,-0.122C0.275,-0.103 0.271,-0.086 0.263,-0.071C0.255,-0.056 0.244,-0.043 0.231,-0.032C0.218,-0.021 0.203,-0.013 0.187,-0.007C0.17,-0.001 0.152,0.002 0.135,0.002C0.095,0.002 0.062,-0.013 0.034,-0.042C0.029,-0.048 0.028,-0.054 0.03,-0.061C0.033,-0.068 0.037,-0.074 0.043,-0.08C0.049,-0.085 0.055,-0.089 0.063,-0.09C0.07,-0.092 0.076,-0.09 0.081,-0.085C0.089,-0.076 0.097,-0.069 0.107,-0.065C0.116,-0.061 0.126,-0.059 0.135,-0.059C0.145,-0.059 0.154,-0.061 0.163,-0.064C0.172,-0.068 0.18,-0.074 0.188,-0.081C0.195,-0.087 0.2,-0.095 0.205,-0.104C0.209,-0.113 0.211,-0.122 0.211,-0.132C0.211,-0.14 0.209,-0.147 0.207,-0.154C0.204,-0.161 0.2,-0.169 0.194,-0.177C0.185,-0.188 0.174,-0.199 0.16,-0.211C0.146,-0.223 0.133,-0.233 0.122,-0.241C0.119,-0.243 0.116,-0.245 0.114,-0.248C0.111,-0.251 0.109,-0.253 0.105,-0.255C0.094,-0.264 0.082,-0.274 0.071,-0.285C0.059,-0.296 0.05,-0.308 0.042,-0.322C0.033,-0.335 0.027,-0.349 0.023,-0.364C0.02,-0.379 0.02,-0.395 0.023,-0.412C0.027,-0.428 0.033,-0.444 0.042,-0.458C0.052,-0.472 0.063,-0.484 0.076,-0.494C0.089,-0.505 0.104,-0.513 0.119,-0.519C0.135,-0.524 0.15,-0.527 0.166,-0.527C0.187,-0.527 0.206,-0.522 0.223,-0.51C0.24,-0.499 0.254,-0.48 0.263,-0.453L0.263,-0.454Z" style="fill-rule:nonzero;"/>
        </g>
        <g transform="matrix(10,0,0,10,197.696,70.1072)">
            <path d="M0.263,-0.454C0.265,-0.449 0.265,-0.444 0.263,-0.439C0.262,-0.434 0.259,-0.431 0.255,-0.428C0.251,-0.426 0.247,-0.425 0.242,-0.425C0.237,-0.425 0.232,-0.427 0.228,-0.432C0.215,-0.443 0.203,-0.452 0.191,-0.457C0.179,-0.462 0.167,-0.465 0.156,-0.465C0.136,-0.465 0.119,-0.458 0.105,-0.443C0.092,-0.429 0.085,-0.412 0.085,-0.393C0.085,-0.38 0.089,-0.366 0.096,-0.353C0.103,-0.34 0.114,-0.326 0.128,-0.313L0.157,-0.291C0.179,-0.274 0.2,-0.256 0.221,-0.238C0.242,-0.219 0.257,-0.196 0.267,-0.167L0.267,-0.168C0.27,-0.159 0.272,-0.151 0.273,-0.144C0.275,-0.136 0.275,-0.129 0.275,-0.122C0.275,-0.103 0.271,-0.086 0.263,-0.071C0.255,-0.056 0.244,-0.043 0.231,-0.032C0.218,-0.021 0.203,-0.013 0.187,-0.007C0.17,-0.001 0.152,0.002 0.135,0.002C0.095,0.002 0.062,-0.013 0.034,-0.042C0.029,-0.048 0.028,-0.054 0.03,-0.061C0.033,-0.068 0.037,-0.074 0.043,-0.08C0.049,-0.085 0.055,-0.089 0.063,-0.09C0.07,-0.092 0.076,-0.09 0.081,-0.085C0.089,-0.076 0.097,-0.069 0.107,-0.065C0.116,-0.061 0.126,-0.059 0.135,-0.059C0.145,-0.059 0.154,-0.061 0.163,-0.064C0.172,-0.068 0.18,-0.074 0.188,-0.081C0.195,-0.087 0.2,-0.095 0.205,-0.104C0.209,-0.113 0.211,-0.122 0.211,-0.132C0.211,-0.14 0.209,-0.147 0.207,-0.154C0.204,-0.161 0.2,-0.169 0.194,-0.177C0.185,-0.188 0.174,-0.199 0.16,-0.211C0.146,-0.223 0.133,-0.233 0.122,-0.241C0.119,-0.243 0.116,-0.245 0.114,-0.248C0.111,-0.251 0.109,-0.253 0.105,-0.255C0.094,-0.264 0.082,-0.274 0.071,-0.285C0.059,-0.296 0.05,-0.308 0.042,-0.322C0.033,-0.335 0.027,-0.349 0.023,-0.364C0.02,-0.379 0.02,-0.395 0.023,-0.412C0.027,-0.428 0.033,-0.444 0.042,-0.458C0.052,-0.472 0.063,-0.484 0.076,-0.494C0.089,-0.505 0.104,-0.513 0.119,-0.519C0.135,-0.524 0.15,-0.527 0.166,-0.527C0.187,-0.527 0.206,-0.522 0.223,-0.51C0.24,-0.499 0.254,-0.48 0.263,-0.453L0.263,-0.454Z" style="fill-rule:nonzero;"/>
        </g>
        <g transform="matrix(10,0,0,10,200.665,70.1072)">
            <path d="M0.368,-0.379C0.371,-0.363 0.374,-0.345 0.376,-0.327C0.379,-0.308 0.38,-0.288 0.38,-0.268C0.38,-0.244 0.378,-0.221 0.375,-0.197C0.372,-0.174 0.366,-0.152 0.358,-0.13C0.351,-0.109 0.34,-0.09 0.327,-0.072C0.314,-0.054 0.298,-0.039 0.278,-0.027C0.262,-0.017 0.247,-0.009 0.232,-0.005C0.217,-0 0.203,0.002 0.19,0.002C0.164,0.002 0.14,-0.006 0.118,-0.022C0.097,-0.038 0.079,-0.059 0.064,-0.084C0.049,-0.11 0.038,-0.139 0.03,-0.172C0.022,-0.204 0.019,-0.237 0.019,-0.271C0.019,-0.295 0.021,-0.319 0.025,-0.343C0.029,-0.366 0.036,-0.388 0.045,-0.408C0.054,-0.428 0.066,-0.446 0.08,-0.462C0.094,-0.478 0.11,-0.49 0.129,-0.499C0.158,-0.519 0.186,-0.529 0.213,-0.529C0.231,-0.529 0.249,-0.525 0.266,-0.518C0.283,-0.51 0.298,-0.499 0.312,-0.486C0.325,-0.472 0.337,-0.457 0.347,-0.438C0.356,-0.42 0.364,-0.4 0.368,-0.379ZM0.256,-0.079C0.279,-0.101 0.295,-0.128 0.304,-0.162C0.314,-0.195 0.318,-0.229 0.318,-0.263C0.318,-0.276 0.318,-0.29 0.316,-0.302C0.315,-0.315 0.313,-0.327 0.311,-0.34C0.309,-0.349 0.306,-0.359 0.304,-0.37C0.301,-0.38 0.298,-0.391 0.294,-0.401C0.29,-0.411 0.285,-0.42 0.279,-0.429C0.273,-0.438 0.266,-0.445 0.258,-0.451C0.251,-0.456 0.245,-0.46 0.239,-0.462C0.233,-0.464 0.227,-0.465 0.222,-0.465C0.211,-0.465 0.201,-0.463 0.192,-0.459C0.182,-0.455 0.173,-0.451 0.164,-0.446L0.141,-0.435C0.139,-0.433 0.136,-0.432 0.134,-0.432C0.131,-0.431 0.129,-0.431 0.127,-0.432C0.109,-0.411 0.097,-0.387 0.089,-0.359C0.082,-0.331 0.078,-0.302 0.078,-0.273C0.078,-0.249 0.081,-0.225 0.086,-0.201C0.089,-0.186 0.093,-0.17 0.1,-0.152C0.106,-0.135 0.114,-0.118 0.124,-0.103C0.134,-0.088 0.145,-0.075 0.157,-0.064C0.17,-0.054 0.183,-0.049 0.197,-0.049C0.216,-0.049 0.236,-0.059 0.256,-0.079Z" style="fill-rule:nonzero;"/>
        </g>
        <g transform="matrix(10,0,0,10,204.728,70.1072)">
            <path d="M0.264,-0.509C0.27,-0.506 0.272,-0.5 0.272,-0.493C0.272,-0.486 0.271,-0.479 0.267,-0.472C0.263,-0.465 0.258,-0.459 0.252,-0.454C0.246,-0.45 0.24,-0.449 0.234,-0.451C0.225,-0.456 0.215,-0.458 0.204,-0.458C0.186,-0.458 0.171,-0.449 0.159,-0.431C0.147,-0.412 0.138,-0.389 0.132,-0.36C0.132,-0.351 0.133,-0.34 0.133,-0.33L0.133,-0.3C0.133,-0.277 0.132,-0.254 0.132,-0.23C0.131,-0.207 0.131,-0.184 0.13,-0.161C0.128,-0.117 0.127,-0.072 0.127,-0.025C0.126,-0.016 0.123,-0.009 0.117,-0.005C0.111,-0 0.104,0.002 0.097,0.002C0.09,0.002 0.083,-0 0.077,-0.005C0.07,-0.01 0.066,-0.016 0.064,-0.023C0.061,-0.038 0.058,-0.06 0.056,-0.087C0.054,-0.115 0.053,-0.146 0.053,-0.179C0.053,-0.194 0.053,-0.21 0.054,-0.227C0.055,-0.244 0.057,-0.262 0.059,-0.28C0.061,-0.298 0.063,-0.315 0.065,-0.333C0.067,-0.35 0.07,-0.366 0.072,-0.38C0.072,-0.391 0.071,-0.402 0.07,-0.412C0.069,-0.422 0.068,-0.431 0.066,-0.438C0.064,-0.446 0.063,-0.452 0.061,-0.457C0.059,-0.461 0.057,-0.462 0.055,-0.461C0.049,-0.459 0.044,-0.459 0.04,-0.46C0.035,-0.462 0.031,-0.465 0.027,-0.468C0.024,-0.472 0.022,-0.476 0.021,-0.481C0.021,-0.486 0.022,-0.491 0.026,-0.496C0.039,-0.513 0.052,-0.521 0.065,-0.521C0.076,-0.521 0.086,-0.517 0.093,-0.509C0.1,-0.5 0.106,-0.49 0.111,-0.477C0.122,-0.493 0.134,-0.507 0.147,-0.516C0.161,-0.526 0.177,-0.53 0.195,-0.53C0.217,-0.53 0.24,-0.523 0.264,-0.509Z" style="fill-rule:nonzero;"/>
        </g>
    </g>
    <g id="pappadam" transform="matrix(1.67916,0,0,1.67916,-19.9522,-20.1351)">
        <g id="color">
            <circle cx="36" cy="36" r="23" style="fill:rgb(246,231,165);"/>
            <path d="M54.695,22.61C55.374,24.809 55.198,27.159 55.72,29.401C58.487,41.281 51.718,50.097 32.72,52.401C25.362,53.293 18.336,48.818 14.021,42.792C16.988,52.407 25.936,59.009 35.999,59.009C48.617,59.009 59,48.626 59,36.008C59,31.203 57.494,26.516 54.695,22.61Z" style="fill:rgb(169,142,97);fill-rule:nonzero;"/>
        </g>
        <g id="line">
            <path d="M36.028,12C28.751,11.793 20.933,15.107 16.687,20.301C13.233,24.527 12.678,30.002 12.006,35.887C11.146,43.42 14.832,50.119 20.603,54.708C24.84,58.077 30.047,60.579 36.096,59.995C41.596,59.465 47.855,57.988 52.092,54.613C55.403,51.975 58.051,47.86 59.112,44.085C59.843,41.486 60.174,38.764 59.998,35.938C59.529,28.411 58.708,22.771 53.047,18.318C49.144,15.248 41.346,12.152 36.028,12ZM35.972,14C40.922,14.14 48.177,17.032 51.81,19.89C56.986,23.961 57.573,29.181 58.002,36.062C58.164,38.657 57.858,41.157 57.187,43.544C56.229,46.953 53.836,50.667 50.846,53.049C46.894,56.197 41.034,57.51 35.904,58.005C30.408,58.535 25.697,56.203 21.848,53.143C16.617,48.984 13.214,42.941 13.994,36.113C14.619,30.634 15.02,25.502 18.236,21.567C22.125,16.808 29.304,13.81 35.972,14Z"/>
            <g>
                <g transform="matrix(-0.124146,0.46332,-0.46332,-0.124146,50.5487,-2.10656)">
                    <path d="M50.137,22.723C50.137,20.036 52.318,17.855 55.005,17.855C57.691,17.855 59.872,20.036 59.872,22.723C59.872,23.854 60.79,24.771 61.921,24.771C63.052,24.771 63.969,23.854 63.969,22.723C63.969,17.775 59.952,13.758 55.005,13.758C50.057,13.758 46.04,17.775 46.04,22.723C46.04,23.854 46.958,24.771 48.088,24.771C49.219,24.771 50.137,23.854 50.137,22.723Z"/>
                </g>
                <g transform="matrix(0.081761,0.789168,-0.789168,0.081761,34.151,-12.9604)">
                    <path d="M49.327,22.723C49.327,19.589 51.871,17.045 55.005,17.045C58.138,17.045 60.682,19.589 60.682,22.723C60.682,23.406 61.237,23.961 61.921,23.961C62.604,23.961 63.159,23.406 63.159,22.723C63.159,18.222 59.505,14.568 55.005,14.568C50.504,14.568 46.85,18.222 46.85,22.723C46.85,23.406 47.405,23.961 48.088,23.961C48.772,23.961 49.327,23.406 49.327,22.723Z"/>
                </g>
                <g transform="matrix(0.277272,0.316219,-0.316219,0.277272,29.4007,7.69574)">
                    <path d="M50.425,22.723C50.425,20.195 52.477,18.143 55.005,18.143C57.532,18.143 59.584,20.195 59.584,22.723C59.584,24.012 60.631,25.059 61.921,25.059C63.21,25.059 64.257,24.012 64.257,22.723C64.257,17.616 60.111,13.47 55.005,13.47C49.898,13.47 45.752,17.616 45.752,22.723C45.752,24.012 46.799,25.059 48.088,25.059C49.378,25.059 50.425,24.012 50.425,22.723Z"/>
                </g>
                <g transform="matrix(-0.438121,-0.307036,0.307036,-0.438121,68.0244,68.2949)">
                    <path d="M49.925,22.723C49.925,19.919 52.201,17.643 55.005,17.643C57.808,17.643 60.084,19.919 60.084,22.723C60.084,23.737 60.907,24.56 61.921,24.56C62.935,24.56 63.758,23.737 63.758,22.723C63.758,17.892 59.836,13.97 55.005,13.97C50.174,13.97 46.252,17.892 46.252,22.723C46.252,23.737 47.075,24.56 48.088,24.56C49.102,24.56 49.925,23.737 49.925,22.723Z"/>
                </g>
                <g transform="matrix(-0.209862,0.213524,-0.213524,-0.209862,61.5276,15.4348)">
                    <path d="M51.37,22.723C51.37,20.717 52.999,19.089 55.005,19.089C57.01,19.089 58.639,20.717 58.639,22.723C58.639,24.534 60.109,26.005 61.921,26.005C63.732,26.005 65.203,24.534 65.203,22.723C65.203,17.094 60.633,12.524 55.005,12.524C49.376,12.524 44.806,17.094 44.806,22.723C44.806,24.534 46.277,26.005 48.088,26.005C49.9,26.005 51.37,24.534 51.37,22.723Z"/>
                </g>
                <g transform="matrix(-0.104501,0.390004,-0.390004,-0.104501,38.51,26.4543)">
                    <path d="M50.522,22.723C50.522,20.249 52.531,18.24 55.005,18.24C57.479,18.24 59.487,20.249 59.487,22.723C59.487,24.066 60.578,25.157 61.921,25.157C63.264,25.157 64.355,24.066 64.355,22.723C64.355,17.562 60.165,13.373 55.005,13.373C49.844,13.373 45.655,17.562 45.655,22.723C45.655,24.066 46.745,25.157 48.088,25.157C49.432,25.157 50.522,24.066 50.522,22.723Z"/>
                </g>
                <g transform="matrix(-0.200853,0.145991,-0.145991,-0.200853,47.4251,35.3069)">
                    <path d="M52.046,22.723C52.046,21.09 53.372,19.764 55.005,19.764C56.638,19.764 57.964,21.09 57.964,22.723C57.964,24.907 59.737,26.68 61.921,26.68C64.105,26.68 65.878,24.907 65.878,22.723C65.878,16.722 61.006,11.849 55.005,11.849C49.003,11.849 44.131,16.722 44.131,22.723C44.131,24.907 45.904,26.68 48.088,26.68C50.272,26.68 52.046,24.907 52.046,22.723Z"/>
                </g>
                <g transform="matrix(0.328565,-0.71718,0.71718,0.328565,5.18494,82.5899)">
                    <path d="M49.334,22.723C49.334,19.593 51.875,17.052 55.005,17.052C58.134,17.052 60.675,19.593 60.675,22.723C60.675,23.41 61.233,23.969 61.921,23.969C62.608,23.969 63.167,23.41 63.167,22.723C63.167,18.218 59.509,14.561 55.005,14.561C50.5,14.561 46.843,18.218 46.843,22.723C46.843,23.41 47.401,23.969 48.088,23.969C48.776,23.969 49.334,23.41 49.334,22.723Z"/>
                </g>
                <g transform="matrix(-0.387801,0.297417,-0.297417,-0.387801,78.4477,23.4791)">
                    <path d="M50.099,22.723C50.099,20.015 52.297,17.817 55.005,17.817C57.712,17.817 59.91,20.015 59.91,22.723C59.91,23.833 60.811,24.734 61.921,24.734C63.031,24.734 63.932,23.833 63.932,22.723C63.932,17.796 59.932,13.796 55.005,13.796C50.078,13.796 46.078,17.796 46.078,22.723C46.078,23.833 46.979,24.734 48.088,24.734C49.198,24.734 50.099,23.833 50.099,22.723Z"/>
                </g>
            </g>
        </g>
    </g>
</svg>
