<?xml version="1.0" encoding="UTF-8" standalone="no"?>
<!DOCTYPE svg PUBLIC "-//W3C//DTD SVG 1.1//EN" "http://www.w3.org/Graphics/SVG/1.1/DTD/svg11.dtd">
<svg width="100%" height="100%" viewBox="0 0 538 384" version="1.1" xmlns="http://www.w3.org/2000/svg" xmlns:xlink="http://www.w3.org/1999/xlink" xml:space="preserve" xmlns:serif="http://www.serif.com/" style="fill-rule:evenodd;clip-rule:evenodd;stroke-linejoin:round;stroke-miterlimit:2;">
    <g>
        <g transform="matrix(0.366686,0,0,0.366686,-19.3552,0)">
            <g>
                <path d="M450.982,81.814L345.732,81.814L345.732,7.918L450.982,81.814Z" style="fill:rgb(126,132,136);fill-rule:nonzero;"/>
                <path d="M414.351,387.959L414.351,461.856L293.054,377.297L335.175,329.897L414.351,387.959Z" style="fill:rgb(0,171,78);fill-rule:nonzero;"/>
                <path d="M293.054,377.297L414.351,461.856L97.649,461.856L240.165,340.454L293.054,377.297Z" style="fill:rgb(54,198,63);fill-rule:nonzero;"/>
                <path d="M171.546,250.722C191.92,250.722 208.494,267.296 208.494,287.67C208.494,308.044 191.92,324.618 171.546,324.618C151.172,324.618 134.598,308.044 134.598,287.67C134.598,267.296 151.172,250.722 171.546,250.722Z" style="fill:rgb(255,165,0);fill-rule:nonzero;"/>
                <path d="M171.546,324.619C191.92,324.619 208.494,308.045 208.494,287.671C208.494,267.297 191.92,250.723 171.546,250.723C151.172,250.723 134.598,267.297 134.598,287.671C134.598,308.045 151.172,324.619 171.546,324.619ZM414.351,208.495L414.351,387.959L335.176,329.897L293.055,377.297L240.166,340.454L97.649,461.856L97.649,208.495L414.351,208.495Z" style="fill:rgb(0,171,213);fill-rule:nonzero;"/>
                <path d="M60.701,7.918L345.732,7.918L345.732,81.815L450.982,81.815L451.299,82.026L451.299,504.083L60.701,504.083L60.701,7.918ZM414.351,461.856L414.351,208.495L97.649,208.495L97.649,461.856L414.351,461.856Z" style="fill:rgb(175,182,187);fill-rule:nonzero;"/>
                <path d="M97.649,461.856L97.649,208.495L256,208.495L256,7.918L60.701,7.918L60.701,504.082L256,504.082L256,461.856L97.649,461.856Z" style="fill:rgb(160,167,171);fill-rule:nonzero;"/>
                <path d="M97.649,208.495L97.649,461.856L240.164,340.454L256,351.484L256,208.495L97.649,208.495ZM171.546,324.619C151.172,324.619 134.598,308.045 134.598,287.671C134.598,267.297 151.172,250.723 171.546,250.723C191.92,250.723 208.494,267.297 208.494,287.671C208.494,308.045 191.921,324.619 171.546,324.619Z" style="fill:rgb(0,159,211);fill-rule:nonzero;"/>
                <path d="M414.351,429.705L312.382,355.547L293.054,377.297L414.351,461.856L414.351,429.705Z" style="fill:rgb(0,161,81);fill-rule:nonzero;"/>
                <path d="M293.054,377.297L240.165,340.454L213.258,363.375L357.697,461.856L414.351,461.856L293.054,377.297Z" style="fill:rgb(0,176,76);fill-rule:nonzero;"/>
                <path d="M348.234,0L52.784,0L52.784,512L459.217,512L459.217,77.791L348.234,0ZM353.65,23.151L425.927,73.897L353.65,73.897L353.65,23.151ZM68.619,496.165L68.619,15.835L337.815,15.835L337.815,89.732L443.382,89.732L443.382,496.165L68.619,496.165Z" style="fill-rule:nonzero;"/>
                <path d="M89.732,469.773L422.268,469.773L422.268,200.577L89.732,200.577L89.732,469.773ZM406.433,446.685L304.874,375.885L336.306,340.544L406.433,391.97L406.433,446.685ZM389.149,453.938L119.153,453.938L240.65,350.441L389.149,453.938ZM406.433,216.412L406.433,372.334L334.045,319.249L291.809,366.779L239.68,330.465L105.567,444.711L105.567,216.412L406.433,216.412Z" style="fill-rule:nonzero;"/>
                <path d="M171.546,332.536C196.286,332.536 216.412,312.41 216.412,287.67C216.412,262.93 196.286,242.804 171.546,242.804C146.806,242.804 126.68,262.93 126.68,287.67C126.68,312.41 146.807,332.536 171.546,332.536ZM171.546,258.639C187.554,258.639 200.577,271.663 200.577,287.67C200.577,303.677 187.554,316.701 171.546,316.701C155.538,316.701 142.515,303.677 142.515,287.67C142.515,271.663 155.538,258.639 171.546,258.639Z" style="fill-rule:nonzero;"/>
                <rect x="87.093" y="42.227" width="95.01" height="15.835" style="fill:white;"/>
                <rect x="197.938" y="42.227" width="21.113" height="15.835" style="fill:white;"/>
                <rect x="197.938" y="73.897" width="21.113" height="15.835" style="fill:white;"/>
                <rect x="87.093" y="73.897" width="21.113" height="15.835" style="fill:white;"/>
                <rect x="118.763" y="73.897" width="21.113" height="15.835" style="fill:white;"/>
                <rect x="266.557" y="242.804" width="100.289" height="15.835" style="fill:white;"/>
                <rect x="250.722" y="274.474" width="63.34" height="15.835" style="fill:white;"/>
                <rect x="329.897" y="274.474" width="21.113" height="15.835" style="fill:white;"/>
            </g>
        </g>
        <g transform="matrix(0.366686,0,0,0.366686,-19.3554,196.257)">
            <g>
                <path d="M450.982,81.814L345.732,81.814L345.732,7.918L450.982,81.814Z" style="fill:rgb(126,132,136);fill-rule:nonzero;"/>
                <path d="M414.351,387.959L414.351,461.856L293.054,377.297L335.175,329.897L414.351,387.959Z" style="fill:rgb(0,171,78);fill-rule:nonzero;"/>
                <path d="M293.054,377.297L414.351,461.856L97.649,461.856L240.165,340.454L293.054,377.297Z" style="fill:rgb(54,198,63);fill-rule:nonzero;"/>
                <path d="M171.546,250.722C191.92,250.722 208.494,267.296 208.494,287.67C208.494,308.044 191.92,324.618 171.546,324.618C151.172,324.618 134.598,308.044 134.598,287.67C134.598,267.296 151.172,250.722 171.546,250.722Z" style="fill:rgb(255,165,0);fill-rule:nonzero;"/>
                <path d="M171.546,324.619C191.92,324.619 208.494,308.045 208.494,287.671C208.494,267.297 191.92,250.723 171.546,250.723C151.172,250.723 134.598,267.297 134.598,287.671C134.598,308.045 151.172,324.619 171.546,324.619ZM414.351,208.495L414.351,387.959L335.176,329.897L293.055,377.297L240.166,340.454L97.649,461.856L97.649,208.495L414.351,208.495Z" style="fill:rgb(0,171,213);fill-rule:nonzero;"/>
                <path d="M60.701,7.918L345.732,7.918L345.732,81.815L450.982,81.815L451.299,82.026L451.299,504.083L60.701,504.083L60.701,7.918ZM414.351,461.856L414.351,208.495L97.649,208.495L97.649,461.856L414.351,461.856Z" style="fill:rgb(175,182,187);fill-rule:nonzero;"/>
                <path d="M97.649,461.856L97.649,208.495L256,208.495L256,7.918L60.701,7.918L60.701,504.082L256,504.082L256,461.856L97.649,461.856Z" style="fill:rgb(160,167,171);fill-rule:nonzero;"/>
                <path d="M97.649,208.495L97.649,461.856L240.164,340.454L256,351.484L256,208.495L97.649,208.495ZM171.546,324.619C151.172,324.619 134.598,308.045 134.598,287.671C134.598,267.297 151.172,250.723 171.546,250.723C191.92,250.723 208.494,267.297 208.494,287.671C208.494,308.045 191.921,324.619 171.546,324.619Z" style="fill:rgb(0,159,211);fill-rule:nonzero;"/>
                <path d="M414.351,429.705L312.382,355.547L293.054,377.297L414.351,461.856L414.351,429.705Z" style="fill:rgb(0,161,81);fill-rule:nonzero;"/>
                <path d="M293.054,377.297L240.165,340.454L213.258,363.375L357.697,461.856L414.351,461.856L293.054,377.297Z" style="fill:rgb(0,176,76);fill-rule:nonzero;"/>
                <path d="M348.234,0L52.784,0L52.784,512L459.217,512L459.217,77.791L348.234,0ZM353.65,23.151L425.927,73.897L353.65,73.897L353.65,23.151ZM68.619,496.165L68.619,15.835L337.815,15.835L337.815,89.732L443.382,89.732L443.382,496.165L68.619,496.165Z" style="fill-rule:nonzero;"/>
                <path d="M89.732,469.773L422.268,469.773L422.268,200.577L89.732,200.577L89.732,469.773ZM406.433,446.685L304.874,375.885L336.306,340.544L406.433,391.97L406.433,446.685ZM389.149,453.938L119.153,453.938L240.65,350.441L389.149,453.938ZM406.433,216.412L406.433,372.334L334.045,319.249L291.809,366.779L239.68,330.465L105.567,444.711L105.567,216.412L406.433,216.412Z" style="fill-rule:nonzero;"/>
                <path d="M171.546,332.536C196.286,332.536 216.412,312.41 216.412,287.67C216.412,262.93 196.286,242.804 171.546,242.804C146.806,242.804 126.68,262.93 126.68,287.67C126.68,312.41 146.807,332.536 171.546,332.536ZM171.546,258.639C187.554,258.639 200.577,271.663 200.577,287.67C200.577,303.677 187.554,316.701 171.546,316.701C155.538,316.701 142.515,303.677 142.515,287.67C142.515,271.663 155.538,258.639 171.546,258.639Z" style="fill-rule:nonzero;"/>
                <rect x="87.093" y="42.227" width="95.01" height="15.835" style="fill:white;"/>
                <rect x="197.938" y="42.227" width="21.113" height="15.835" style="fill:white;"/>
                <rect x="197.938" y="73.897" width="21.113" height="15.835" style="fill:white;"/>
                <rect x="87.093" y="73.897" width="21.113" height="15.835" style="fill:white;"/>
                <rect x="118.763" y="73.897" width="21.113" height="15.835" style="fill:white;"/>
                <rect x="266.557" y="242.804" width="100.289" height="15.835" style="fill:white;"/>
                <rect x="250.722" y="274.474" width="63.34" height="15.835" style="fill:white;"/>
                <rect x="329.897" y="274.474" width="21.113" height="15.835" style="fill:white;"/>
            </g>
        </g>
    </g>
    <g transform="matrix(1,0,0,1,152.052,0)">
        <g transform="matrix(0.366686,0,0,0.366686,-19.3552,0)">
            <g>
                <path d="M450.982,81.814L345.732,81.814L345.732,7.918L450.982,81.814Z" style="fill:rgb(126,132,136);fill-rule:nonzero;"/>
                <path d="M414.351,387.959L414.351,461.856L293.054,377.297L335.175,329.897L414.351,387.959Z" style="fill:rgb(0,171,78);fill-rule:nonzero;"/>
                <path d="M293.054,377.297L414.351,461.856L97.649,461.856L240.165,340.454L293.054,377.297Z" style="fill:rgb(54,198,63);fill-rule:nonzero;"/>
                <path d="M171.546,250.722C191.92,250.722 208.494,267.296 208.494,287.67C208.494,308.044 191.92,324.618 171.546,324.618C151.172,324.618 134.598,308.044 134.598,287.67C134.598,267.296 151.172,250.722 171.546,250.722Z" style="fill:rgb(255,165,0);fill-rule:nonzero;"/>
                <path d="M171.546,324.619C191.92,324.619 208.494,308.045 208.494,287.671C208.494,267.297 191.92,250.723 171.546,250.723C151.172,250.723 134.598,267.297 134.598,287.671C134.598,308.045 151.172,324.619 171.546,324.619ZM414.351,208.495L414.351,387.959L335.176,329.897L293.055,377.297L240.166,340.454L97.649,461.856L97.649,208.495L414.351,208.495Z" style="fill:rgb(0,171,213);fill-rule:nonzero;"/>
                <path d="M60.701,7.918L345.732,7.918L345.732,81.815L450.982,81.815L451.299,82.026L451.299,504.083L60.701,504.083L60.701,7.918ZM414.351,461.856L414.351,208.495L97.649,208.495L97.649,461.856L414.351,461.856Z" style="fill:rgb(175,182,187);fill-rule:nonzero;"/>
                <path d="M97.649,461.856L97.649,208.495L256,208.495L256,7.918L60.701,7.918L60.701,504.082L256,504.082L256,461.856L97.649,461.856Z" style="fill:rgb(160,167,171);fill-rule:nonzero;"/>
                <path d="M97.649,208.495L97.649,461.856L240.164,340.454L256,351.484L256,208.495L97.649,208.495ZM171.546,324.619C151.172,324.619 134.598,308.045 134.598,287.671C134.598,267.297 151.172,250.723 171.546,250.723C191.92,250.723 208.494,267.297 208.494,287.671C208.494,308.045 191.921,324.619 171.546,324.619Z" style="fill:rgb(0,159,211);fill-rule:nonzero;"/>
                <path d="M414.351,429.705L312.382,355.547L293.054,377.297L414.351,461.856L414.351,429.705Z" style="fill:rgb(0,161,81);fill-rule:nonzero;"/>
                <path d="M293.054,377.297L240.165,340.454L213.258,363.375L357.697,461.856L414.351,461.856L293.054,377.297Z" style="fill:rgb(0,176,76);fill-rule:nonzero;"/>
                <path d="M348.234,0L52.784,0L52.784,512L459.217,512L459.217,77.791L348.234,0ZM353.65,23.151L425.927,73.897L353.65,73.897L353.65,23.151ZM68.619,496.165L68.619,15.835L337.815,15.835L337.815,89.732L443.382,89.732L443.382,496.165L68.619,496.165Z" style="fill-rule:nonzero;"/>
                <path d="M89.732,469.773L422.268,469.773L422.268,200.577L89.732,200.577L89.732,469.773ZM406.433,446.685L304.874,375.885L336.306,340.544L406.433,391.97L406.433,446.685ZM389.149,453.938L119.153,453.938L240.65,350.441L389.149,453.938ZM406.433,216.412L406.433,372.334L334.045,319.249L291.809,366.779L239.68,330.465L105.567,444.711L105.567,216.412L406.433,216.412Z" style="fill-rule:nonzero;"/>
                <path d="M171.546,332.536C196.286,332.536 216.412,312.41 216.412,287.67C216.412,262.93 196.286,242.804 171.546,242.804C146.806,242.804 126.68,262.93 126.68,287.67C126.68,312.41 146.807,332.536 171.546,332.536ZM171.546,258.639C187.554,258.639 200.577,271.663 200.577,287.67C200.577,303.677 187.554,316.701 171.546,316.701C155.538,316.701 142.515,303.677 142.515,287.67C142.515,271.663 155.538,258.639 171.546,258.639Z" style="fill-rule:nonzero;"/>
                <rect x="87.093" y="42.227" width="95.01" height="15.835" style="fill:white;"/>
                <rect x="197.938" y="42.227" width="21.113" height="15.835" style="fill:white;"/>
                <rect x="197.938" y="73.897" width="21.113" height="15.835" style="fill:white;"/>
                <rect x="87.093" y="73.897" width="21.113" height="15.835" style="fill:white;"/>
                <rect x="118.763" y="73.897" width="21.113" height="15.835" style="fill:white;"/>
                <rect x="266.557" y="242.804" width="100.289" height="15.835" style="fill:white;"/>
                <rect x="250.722" y="274.474" width="63.34" height="15.835" style="fill:white;"/>
                <rect x="329.897" y="274.474" width="21.113" height="15.835" style="fill:white;"/>
            </g>
        </g>
        <g transform="matrix(0.366686,0,0,0.366686,-19.3554,196.257)">
            <g>
                <path d="M450.982,81.814L345.732,81.814L345.732,7.918L450.982,81.814Z" style="fill:rgb(126,132,136);fill-rule:nonzero;"/>
                <path d="M414.351,387.959L414.351,461.856L293.054,377.297L335.175,329.897L414.351,387.959Z" style="fill:rgb(0,171,78);fill-rule:nonzero;"/>
                <path d="M293.054,377.297L414.351,461.856L97.649,461.856L240.165,340.454L293.054,377.297Z" style="fill:rgb(54,198,63);fill-rule:nonzero;"/>
                <path d="M171.546,250.722C191.92,250.722 208.494,267.296 208.494,287.67C208.494,308.044 191.92,324.618 171.546,324.618C151.172,324.618 134.598,308.044 134.598,287.67C134.598,267.296 151.172,250.722 171.546,250.722Z" style="fill:rgb(255,165,0);fill-rule:nonzero;"/>
                <path d="M171.546,324.619C191.92,324.619 208.494,308.045 208.494,287.671C208.494,267.297 191.92,250.723 171.546,250.723C151.172,250.723 134.598,267.297 134.598,287.671C134.598,308.045 151.172,324.619 171.546,324.619ZM414.351,208.495L414.351,387.959L335.176,329.897L293.055,377.297L240.166,340.454L97.649,461.856L97.649,208.495L414.351,208.495Z" style="fill:rgb(0,171,213);fill-rule:nonzero;"/>
                <path d="M60.701,7.918L345.732,7.918L345.732,81.815L450.982,81.815L451.299,82.026L451.299,504.083L60.701,504.083L60.701,7.918ZM414.351,461.856L414.351,208.495L97.649,208.495L97.649,461.856L414.351,461.856Z" style="fill:rgb(175,182,187);fill-rule:nonzero;"/>
                <path d="M97.649,461.856L97.649,208.495L256,208.495L256,7.918L60.701,7.918L60.701,504.082L256,504.082L256,461.856L97.649,461.856Z" style="fill:rgb(160,167,171);fill-rule:nonzero;"/>
                <path d="M97.649,208.495L97.649,461.856L240.164,340.454L256,351.484L256,208.495L97.649,208.495ZM171.546,324.619C151.172,324.619 134.598,308.045 134.598,287.671C134.598,267.297 151.172,250.723 171.546,250.723C191.92,250.723 208.494,267.297 208.494,287.671C208.494,308.045 191.921,324.619 171.546,324.619Z" style="fill:rgb(0,159,211);fill-rule:nonzero;"/>
                <path d="M414.351,429.705L312.382,355.547L293.054,377.297L414.351,461.856L414.351,429.705Z" style="fill:rgb(0,161,81);fill-rule:nonzero;"/>
                <path d="M293.054,377.297L240.165,340.454L213.258,363.375L357.697,461.856L414.351,461.856L293.054,377.297Z" style="fill:rgb(0,176,76);fill-rule:nonzero;"/>
                <path d="M348.234,0L52.784,0L52.784,512L459.217,512L459.217,77.791L348.234,0ZM353.65,23.151L425.927,73.897L353.65,73.897L353.65,23.151ZM68.619,496.165L68.619,15.835L337.815,15.835L337.815,89.732L443.382,89.732L443.382,496.165L68.619,496.165Z" style="fill-rule:nonzero;"/>
                <path d="M89.732,469.773L422.268,469.773L422.268,200.577L89.732,200.577L89.732,469.773ZM406.433,446.685L304.874,375.885L336.306,340.544L406.433,391.97L406.433,446.685ZM389.149,453.938L119.153,453.938L240.65,350.441L389.149,453.938ZM406.433,216.412L406.433,372.334L334.045,319.249L291.809,366.779L239.68,330.465L105.567,444.711L105.567,216.412L406.433,216.412Z" style="fill-rule:nonzero;"/>
                <path d="M171.546,332.536C196.286,332.536 216.412,312.41 216.412,287.67C216.412,262.93 196.286,242.804 171.546,242.804C146.806,242.804 126.68,262.93 126.68,287.67C126.68,312.41 146.807,332.536 171.546,332.536ZM171.546,258.639C187.554,258.639 200.577,271.663 200.577,287.67C200.577,303.677 187.554,316.701 171.546,316.701C155.538,316.701 142.515,303.677 142.515,287.67C142.515,271.663 155.538,258.639 171.546,258.639Z" style="fill-rule:nonzero;"/>
                <rect x="87.093" y="42.227" width="95.01" height="15.835" style="fill:white;"/>
                <rect x="197.938" y="42.227" width="21.113" height="15.835" style="fill:white;"/>
                <rect x="197.938" y="73.897" width="21.113" height="15.835" style="fill:white;"/>
                <rect x="87.093" y="73.897" width="21.113" height="15.835" style="fill:white;"/>
                <rect x="118.763" y="73.897" width="21.113" height="15.835" style="fill:white;"/>
                <rect x="266.557" y="242.804" width="100.289" height="15.835" style="fill:white;"/>
                <rect x="250.722" y="274.474" width="63.34" height="15.835" style="fill:white;"/>
                <rect x="329.897" y="274.474" width="21.113" height="15.835" style="fill:white;"/>
            </g>
        </g>
    </g>
    <g transform="matrix(1,0,0,1,304.103,0)">
        <g transform="matrix(0.366686,0,0,0.366686,-19.3552,0)">
            <g>
                <path d="M450.982,81.814L345.732,81.814L345.732,7.918L450.982,81.814Z" style="fill:rgb(126,132,136);fill-rule:nonzero;"/>
                <path d="M414.351,387.959L414.351,461.856L293.054,377.297L335.175,329.897L414.351,387.959Z" style="fill:rgb(0,171,78);fill-rule:nonzero;"/>
                <path d="M293.054,377.297L414.351,461.856L97.649,461.856L240.165,340.454L293.054,377.297Z" style="fill:rgb(54,198,63);fill-rule:nonzero;"/>
                <path d="M171.546,250.722C191.92,250.722 208.494,267.296 208.494,287.67C208.494,308.044 191.92,324.618 171.546,324.618C151.172,324.618 134.598,308.044 134.598,287.67C134.598,267.296 151.172,250.722 171.546,250.722Z" style="fill:rgb(255,165,0);fill-rule:nonzero;"/>
                <path d="M171.546,324.619C191.92,324.619 208.494,308.045 208.494,287.671C208.494,267.297 191.92,250.723 171.546,250.723C151.172,250.723 134.598,267.297 134.598,287.671C134.598,308.045 151.172,324.619 171.546,324.619ZM414.351,208.495L414.351,387.959L335.176,329.897L293.055,377.297L240.166,340.454L97.649,461.856L97.649,208.495L414.351,208.495Z" style="fill:rgb(0,171,213);fill-rule:nonzero;"/>
                <path d="M60.701,7.918L345.732,7.918L345.732,81.815L450.982,81.815L451.299,82.026L451.299,504.083L60.701,504.083L60.701,7.918ZM414.351,461.856L414.351,208.495L97.649,208.495L97.649,461.856L414.351,461.856Z" style="fill:rgb(175,182,187);fill-rule:nonzero;"/>
                <path d="M97.649,461.856L97.649,208.495L256,208.495L256,7.918L60.701,7.918L60.701,504.082L256,504.082L256,461.856L97.649,461.856Z" style="fill:rgb(160,167,171);fill-rule:nonzero;"/>
                <path d="M97.649,208.495L97.649,461.856L240.164,340.454L256,351.484L256,208.495L97.649,208.495ZM171.546,324.619C151.172,324.619 134.598,308.045 134.598,287.671C134.598,267.297 151.172,250.723 171.546,250.723C191.92,250.723 208.494,267.297 208.494,287.671C208.494,308.045 191.921,324.619 171.546,324.619Z" style="fill:rgb(0,159,211);fill-rule:nonzero;"/>
                <path d="M414.351,429.705L312.382,355.547L293.054,377.297L414.351,461.856L414.351,429.705Z" style="fill:rgb(0,161,81);fill-rule:nonzero;"/>
                <path d="M293.054,377.297L240.165,340.454L213.258,363.375L357.697,461.856L414.351,461.856L293.054,377.297Z" style="fill:rgb(0,176,76);fill-rule:nonzero;"/>
                <path d="M348.234,0L52.784,0L52.784,512L459.217,512L459.217,77.791L348.234,0ZM353.65,23.151L425.927,73.897L353.65,73.897L353.65,23.151ZM68.619,496.165L68.619,15.835L337.815,15.835L337.815,89.732L443.382,89.732L443.382,496.165L68.619,496.165Z" style="fill-rule:nonzero;"/>
                <path d="M89.732,469.773L422.268,469.773L422.268,200.577L89.732,200.577L89.732,469.773ZM406.433,446.685L304.874,375.885L336.306,340.544L406.433,391.97L406.433,446.685ZM389.149,453.938L119.153,453.938L240.65,350.441L389.149,453.938ZM406.433,216.412L406.433,372.334L334.045,319.249L291.809,366.779L239.68,330.465L105.567,444.711L105.567,216.412L406.433,216.412Z" style="fill-rule:nonzero;"/>
                <path d="M171.546,332.536C196.286,332.536 216.412,312.41 216.412,287.67C216.412,262.93 196.286,242.804 171.546,242.804C146.806,242.804 126.68,262.93 126.68,287.67C126.68,312.41 146.807,332.536 171.546,332.536ZM171.546,258.639C187.554,258.639 200.577,271.663 200.577,287.67C200.577,303.677 187.554,316.701 171.546,316.701C155.538,316.701 142.515,303.677 142.515,287.67C142.515,271.663 155.538,258.639 171.546,258.639Z" style="fill-rule:nonzero;"/>
                <rect x="87.093" y="42.227" width="95.01" height="15.835" style="fill:white;"/>
                <rect x="197.938" y="42.227" width="21.113" height="15.835" style="fill:white;"/>
                <rect x="197.938" y="73.897" width="21.113" height="15.835" style="fill:white;"/>
                <rect x="87.093" y="73.897" width="21.113" height="15.835" style="fill:white;"/>
                <rect x="118.763" y="73.897" width="21.113" height="15.835" style="fill:white;"/>
                <rect x="266.557" y="242.804" width="100.289" height="15.835" style="fill:white;"/>
                <rect x="250.722" y="274.474" width="63.34" height="15.835" style="fill:white;"/>
                <rect x="329.897" y="274.474" width="21.113" height="15.835" style="fill:white;"/>
            </g>
        </g>
        <g transform="matrix(0.366686,0,0,0.366686,-19.3554,196.257)">
            <g>
                <path d="M450.982,81.814L345.732,81.814L345.732,7.918L450.982,81.814Z" style="fill:rgb(126,132,136);fill-rule:nonzero;"/>
                <path d="M414.351,387.959L414.351,461.856L293.054,377.297L335.175,329.897L414.351,387.959Z" style="fill:rgb(0,171,78);fill-rule:nonzero;"/>
                <path d="M293.054,377.297L414.351,461.856L97.649,461.856L240.165,340.454L293.054,377.297Z" style="fill:rgb(54,198,63);fill-rule:nonzero;"/>
                <path d="M171.546,250.722C191.92,250.722 208.494,267.296 208.494,287.67C208.494,308.044 191.92,324.618 171.546,324.618C151.172,324.618 134.598,308.044 134.598,287.67C134.598,267.296 151.172,250.722 171.546,250.722Z" style="fill:rgb(255,165,0);fill-rule:nonzero;"/>
                <path d="M171.546,324.619C191.92,324.619 208.494,308.045 208.494,287.671C208.494,267.297 191.92,250.723 171.546,250.723C151.172,250.723 134.598,267.297 134.598,287.671C134.598,308.045 151.172,324.619 171.546,324.619ZM414.351,208.495L414.351,387.959L335.176,329.897L293.055,377.297L240.166,340.454L97.649,461.856L97.649,208.495L414.351,208.495Z" style="fill:rgb(0,171,213);fill-rule:nonzero;"/>
                <path d="M60.701,7.918L345.732,7.918L345.732,81.815L450.982,81.815L451.299,82.026L451.299,504.083L60.701,504.083L60.701,7.918ZM414.351,461.856L414.351,208.495L97.649,208.495L97.649,461.856L414.351,461.856Z" style="fill:rgb(175,182,187);fill-rule:nonzero;"/>
                <path d="M97.649,461.856L97.649,208.495L256,208.495L256,7.918L60.701,7.918L60.701,504.082L256,504.082L256,461.856L97.649,461.856Z" style="fill:rgb(160,167,171);fill-rule:nonzero;"/>
                <path d="M97.649,208.495L97.649,461.856L240.164,340.454L256,351.484L256,208.495L97.649,208.495ZM171.546,324.619C151.172,324.619 134.598,308.045 134.598,287.671C134.598,267.297 151.172,250.723 171.546,250.723C191.92,250.723 208.494,267.297 208.494,287.671C208.494,308.045 191.921,324.619 171.546,324.619Z" style="fill:rgb(0,159,211);fill-rule:nonzero;"/>
                <path d="M414.351,429.705L312.382,355.547L293.054,377.297L414.351,461.856L414.351,429.705Z" style="fill:rgb(0,161,81);fill-rule:nonzero;"/>
                <path d="M293.054,377.297L240.165,340.454L213.258,363.375L357.697,461.856L414.351,461.856L293.054,377.297Z" style="fill:rgb(0,176,76);fill-rule:nonzero;"/>
                <path d="M348.234,0L52.784,0L52.784,512L459.217,512L459.217,77.791L348.234,0ZM353.65,23.151L425.927,73.897L353.65,73.897L353.65,23.151ZM68.619,496.165L68.619,15.835L337.815,15.835L337.815,89.732L443.382,89.732L443.382,496.165L68.619,496.165Z" style="fill-rule:nonzero;"/>
                <path d="M89.732,469.773L422.268,469.773L422.268,200.577L89.732,200.577L89.732,469.773ZM406.433,446.685L304.874,375.885L336.306,340.544L406.433,391.97L406.433,446.685ZM389.149,453.938L119.153,453.938L240.65,350.441L389.149,453.938ZM406.433,216.412L406.433,372.334L334.045,319.249L291.809,366.779L239.68,330.465L105.567,444.711L105.567,216.412L406.433,216.412Z" style="fill-rule:nonzero;"/>
                <path d="M171.546,332.536C196.286,332.536 216.412,312.41 216.412,287.67C216.412,262.93 196.286,242.804 171.546,242.804C146.806,242.804 126.68,262.93 126.68,287.67C126.68,312.41 146.807,332.536 171.546,332.536ZM171.546,258.639C187.554,258.639 200.577,271.663 200.577,287.67C200.577,303.677 187.554,316.701 171.546,316.701C155.538,316.701 142.515,303.677 142.515,287.67C142.515,271.663 155.538,258.639 171.546,258.639Z" style="fill-rule:nonzero;"/>
                <rect x="87.093" y="42.227" width="95.01" height="15.835" style="fill:white;"/>
                <rect x="197.938" y="42.227" width="21.113" height="15.835" style="fill:white;"/>
                <rect x="197.938" y="73.897" width="21.113" height="15.835" style="fill:white;"/>
                <rect x="87.093" y="73.897" width="21.113" height="15.835" style="fill:white;"/>
                <rect x="118.763" y="73.897" width="21.113" height="15.835" style="fill:white;"/>
                <rect x="266.557" y="242.804" width="100.289" height="15.835" style="fill:white;"/>
                <rect x="250.722" y="274.474" width="63.34" height="15.835" style="fill:white;"/>
                <rect x="329.897" y="274.474" width="21.113" height="15.835" style="fill:white;"/>
            </g>
        </g>
    </g>
    <g transform="matrix(1,0,0,1,456.155,0)">
        <g transform="matrix(0.366686,0,0,0.366686,-19.3552,0)">
            <g>
                <path d="M293.054,377.297L414.351,461.856L97.649,461.856L240.165,340.454L293.054,377.297Z" style="fill:rgb(54,198,63);fill-rule:nonzero;"/>
                <path d="M171.546,250.722C191.92,250.722 208.494,267.296 208.494,287.67C208.494,308.044 191.92,324.618 171.546,324.618C151.172,324.618 134.598,308.044 134.598,287.67C134.598,267.296 151.172,250.722 171.546,250.722Z" style="fill:rgb(255,165,0);fill-rule:nonzero;"/>
                <path d="M171.546,324.619C191.92,324.619 208.494,308.045 208.494,287.671C208.494,267.297 191.92,250.723 171.546,250.723C151.172,250.723 134.598,267.297 134.598,287.671C134.598,308.045 151.172,324.619 171.546,324.619ZM414.351,208.495L414.351,387.959L335.176,329.897L293.055,377.297L240.166,340.454L97.649,461.856L97.649,208.495L414.351,208.495Z" style="fill:rgb(0,171,213);fill-rule:nonzero;"/>
                <path d="M60.701,7.918L345.732,7.918L345.732,81.815L450.982,81.815L451.299,82.026L451.299,504.083L60.701,504.083L60.701,7.918ZM414.351,461.856L414.351,208.495L97.649,208.495L97.649,461.856L414.351,461.856Z" style="fill:rgb(175,182,187);fill-rule:nonzero;"/>
                <path d="M97.649,461.856L97.649,208.495L256,208.495L256,7.918L60.701,7.918L60.701,504.082L256,504.082L256,461.856L97.649,461.856Z" style="fill:rgb(160,167,171);fill-rule:nonzero;"/>
                <path d="M97.649,208.495L97.649,461.856L240.164,340.454L256,351.484L256,208.495L97.649,208.495ZM171.546,324.619C151.172,324.619 134.598,308.045 134.598,287.671C134.598,267.297 151.172,250.723 171.546,250.723C191.92,250.723 208.494,267.297 208.494,287.671C208.494,308.045 191.921,324.619 171.546,324.619Z" style="fill:rgb(0,159,211);fill-rule:nonzero;"/>
                <path d="M293.054,377.297L240.165,340.454L213.258,363.375L357.697,461.856L414.351,461.856L293.054,377.297Z" style="fill:rgb(0,176,76);fill-rule:nonzero;"/>
                <path d="M348.234,0L52.784,0L52.784,512L459.217,512L459.217,77.791L348.234,0ZM353.65,23.151L425.927,73.897L353.65,73.897L353.65,23.151ZM68.619,496.165L68.619,15.835L337.815,15.835L337.815,89.732L443.382,89.732L443.382,496.165L68.619,496.165Z" style="fill-rule:nonzero;"/>
                <path d="M89.732,469.773L422.268,469.773L422.268,200.577L89.732,200.577L89.732,469.773ZM406.433,446.685L304.874,375.885L336.306,340.544L406.433,391.97L406.433,446.685ZM389.149,453.938L119.153,453.938L240.65,350.441L389.149,453.938ZM406.433,216.412L406.433,372.334L334.045,319.249L291.809,366.779L239.68,330.465L105.567,444.711L105.567,216.412L406.433,216.412Z" style="fill-rule:nonzero;"/>
                <path d="M171.546,332.536C196.286,332.536 216.412,312.41 216.412,287.67C216.412,262.93 196.286,242.804 171.546,242.804C146.806,242.804 126.68,262.93 126.68,287.67C126.68,312.41 146.807,332.536 171.546,332.536ZM171.546,258.639C187.554,258.639 200.577,271.663 200.577,287.67C200.577,303.677 187.554,316.701 171.546,316.701C155.538,316.701 142.515,303.677 142.515,287.67C142.515,271.663 155.538,258.639 171.546,258.639Z" style="fill-rule:nonzero;"/>
                <rect x="87.093" y="42.227" width="95.01" height="15.835" style="fill:white;"/>
                <rect x="197.938" y="42.227" width="21.113" height="15.835" style="fill:white;"/>
                <rect x="197.938" y="73.897" width="21.113" height="15.835" style="fill:white;"/>
                <rect x="87.093" y="73.897" width="21.113" height="15.835" style="fill:white;"/>
                <rect x="118.763" y="73.897" width="21.113" height="15.835" style="fill:white;"/>
                <rect x="266.557" y="242.804" width="100.289" height="15.835" style="fill:white;"/>
                <rect x="250.722" y="274.474" width="63.34" height="15.835" style="fill:white;"/>
            </g>
        </g>
        <g transform="matrix(0.366686,0,0,0.366686,-19.3554,196.257)">
            <g>
                <path d="M293.054,377.297L414.351,461.856L97.649,461.856L240.165,340.454L293.054,377.297Z" style="fill:rgb(54,198,63);fill-rule:nonzero;"/>
                <path d="M171.546,250.722C191.92,250.722 208.494,267.296 208.494,287.67C208.494,308.044 191.92,324.618 171.546,324.618C151.172,324.618 134.598,308.044 134.598,287.67C134.598,267.296 151.172,250.722 171.546,250.722Z" style="fill:rgb(255,165,0);fill-rule:nonzero;"/>
                <path d="M171.546,324.619C191.92,324.619 208.494,308.045 208.494,287.671C208.494,267.297 191.92,250.723 171.546,250.723C151.172,250.723 134.598,267.297 134.598,287.671C134.598,308.045 151.172,324.619 171.546,324.619ZM414.351,208.495L414.351,387.959L335.176,329.897L293.055,377.297L240.166,340.454L97.649,461.856L97.649,208.495L414.351,208.495Z" style="fill:rgb(0,171,213);fill-rule:nonzero;"/>
                <path d="M60.701,7.918L345.732,7.918L345.732,81.815L450.982,81.815L451.299,82.026L451.299,504.083L60.701,504.083L60.701,7.918ZM414.351,461.856L414.351,208.495L97.649,208.495L97.649,461.856L414.351,461.856Z" style="fill:rgb(175,182,187);fill-rule:nonzero;"/>
                <path d="M97.649,461.856L97.649,208.495L256,208.495L256,7.918L60.701,7.918L60.701,504.082L256,504.082L256,461.856L97.649,461.856Z" style="fill:rgb(160,167,171);fill-rule:nonzero;"/>
                <path d="M97.649,208.495L97.649,461.856L240.164,340.454L256,351.484L256,208.495L97.649,208.495ZM171.546,324.619C151.172,324.619 134.598,308.045 134.598,287.671C134.598,267.297 151.172,250.723 171.546,250.723C191.92,250.723 208.494,267.297 208.494,287.671C208.494,308.045 191.921,324.619 171.546,324.619Z" style="fill:rgb(0,159,211);fill-rule:nonzero;"/>
                <path d="M293.054,377.297L240.165,340.454L213.258,363.375L357.697,461.856L414.351,461.856L293.054,377.297Z" style="fill:rgb(0,176,76);fill-rule:nonzero;"/>
                <path d="M348.234,0L52.784,0L52.784,512L459.217,512L459.217,77.791L348.234,0ZM353.65,23.151L425.927,73.897L353.65,73.897L353.65,23.151ZM68.619,496.165L68.619,15.835L337.815,15.835L337.815,89.732L443.382,89.732L443.382,496.165L68.619,496.165Z" style="fill-rule:nonzero;"/>
                <path d="M89.732,469.773L422.268,469.773L422.268,200.577L89.732,200.577L89.732,469.773ZM406.433,446.685L304.874,375.885L336.306,340.544L406.433,391.97L406.433,446.685ZM389.149,453.938L119.153,453.938L240.65,350.441L389.149,453.938ZM406.433,216.412L406.433,372.334L334.045,319.249L291.809,366.779L239.68,330.465L105.567,444.711L105.567,216.412L406.433,216.412Z" style="fill-rule:nonzero;"/>
                <path d="M171.546,332.536C196.286,332.536 216.412,312.41 216.412,287.67C216.412,262.93 196.286,242.804 171.546,242.804C146.806,242.804 126.68,262.93 126.68,287.67C126.68,312.41 146.807,332.536 171.546,332.536ZM171.546,258.639C187.554,258.639 200.577,271.663 200.577,287.67C200.577,303.677 187.554,316.701 171.546,316.701C155.538,316.701 142.515,303.677 142.515,287.67C142.515,271.663 155.538,258.639 171.546,258.639Z" style="fill-rule:nonzero;"/>
                <rect x="87.093" y="42.227" width="95.01" height="15.835" style="fill:white;"/>
                <rect x="197.938" y="42.227" width="21.113" height="15.835" style="fill:white;"/>
                <rect x="197.938" y="73.897" width="21.113" height="15.835" style="fill:white;"/>
                <rect x="87.093" y="73.897" width="21.113" height="15.835" style="fill:white;"/>
                <rect x="118.763" y="73.897" width="21.113" height="15.835" style="fill:white;"/>
                <rect x="266.557" y="242.804" width="100.289" height="15.835" style="fill:white;"/>
                <rect x="250.722" y="274.474" width="63.34" height="15.835" style="fill:white;"/>
            </g>
        </g>
    </g>
</svg>
