<?xml version="1.0" encoding="UTF-8" standalone="no"?>
<!DOCTYPE svg PUBLIC "-//W3C//DTD SVG 1.1//EN" "http://www.w3.org/Graphics/SVG/1.1/DTD/svg11.dtd">
<svg width="100%" height="100%" viewBox="0 0 536 522" version="1.1" xmlns="http://www.w3.org/2000/svg" xmlns:xlink="http://www.w3.org/1999/xlink" xml:space="preserve" xmlns:serif="http://www.serif.com/" style="fill-rule:evenodd;clip-rule:evenodd;stroke-linejoin:round;stroke-miterlimit:2;">
    <rect x="0" y="0" width="536" height="522" style="fill:white;"/>
    <g transform="matrix(1.41676,0,0,1.35651,-4.59171,-5.68434e-14)">
        <rect x="9.316" y="6.076" width="366.177" height="372.658" style="fill:rgb(74,207,217);"/>
        <path d="M9.316,307.443L109.772,164.861L213.468,309.063L294.481,232.911L375.494,310.684L375.494,378.734L9.316,378.734L9.316,307.443Z" style="fill:rgb(205,212,213);fill-rule:nonzero;"/>
        <circle cx="252.354" cy="168.101" r="45.367" style="fill:rgb(255,140,41);"/>
        <rect x="9.316" y="330.127" width="366.177" height="48.608" style="fill:rgb(255,165,0);"/>
        <rect x="9.316" y="6.076" width="184.709" height="372.658" style="fill:rgb(2,149,170);"/>
        <path d="M109.772,164.861L9.316,307.443L9.316,378.734L194.025,378.734L194.025,282.025L109.772,164.861Z" style="fill:rgb(155,170,171);fill-rule:nonzero;"/>
        <circle cx="252.354" cy="168.101" r="45.367" style="fill:rgb(255,209,169);"/>
        <path d="M206.987,168.101C206.987,193.157 227.298,213.468 252.354,213.468L252.354,122.734C227.299,122.734 206.987,143.046 206.987,168.101Z" style="fill:rgb(255,165,0);fill-rule:nonzero;"/>
        <rect x="9.316" y="330.127" width="184.709" height="48.608" style="fill:rgb(253,106,51);"/>
        <path d="M339.848,73.722C336.492,73.722 333.772,71.002 333.772,67.646C333.772,60.275 327.775,54.279 320.405,54.279C313.034,54.279 307.038,60.276 307.038,67.646C307.038,71.002 304.318,73.722 300.962,73.722C297.606,73.722 294.886,71.002 294.886,67.646C294.886,60.275 288.889,54.279 281.519,54.279C274.148,54.279 268.152,60.276 268.152,67.646C268.152,71.002 265.432,73.722 262.076,73.722C258.72,73.722 256,71.002 256,67.646C256,60.275 250.003,54.279 242.633,54.279C235.263,54.279 229.266,60.276 229.266,67.646C229.266,71.002 226.546,73.722 223.19,73.722C219.834,73.722 217.114,71.002 217.114,67.646C217.114,53.575 228.562,42.127 242.633,42.127C250.413,42.127 257.392,45.627 262.076,51.135C266.76,45.627 273.739,42.127 281.519,42.127C289.299,42.127 296.278,45.627 300.962,51.135C305.646,45.627 312.625,42.127 320.405,42.127C334.476,42.127 345.924,53.575 345.924,67.646C345.924,71.001 343.204,73.722 339.848,73.722Z" style="fill:white;fill-rule:nonzero;"/>
        <path d="M129.215,125.57C125.859,125.57 123.139,122.85 123.139,119.494C123.139,112.123 117.142,106.127 109.772,106.127C102.402,106.127 96.405,112.124 96.405,119.494C96.405,122.85 93.685,125.57 90.329,125.57C86.973,125.57 84.253,122.85 84.253,119.494C84.253,112.123 78.256,106.127 70.886,106.127C63.516,106.127 57.519,112.124 57.519,119.494C57.519,122.85 54.799,125.57 51.443,125.57C48.087,125.57 45.367,122.85 45.367,119.494C45.367,105.423 56.815,93.975 70.886,93.975C78.666,93.975 85.645,97.475 90.329,102.983C95.013,97.475 101.992,93.975 109.772,93.975C123.843,93.975 135.291,105.423 135.291,119.494C135.291,122.849 132.571,125.57 129.215,125.57Z" style="fill:white;fill-rule:nonzero;"/>
        <path d="M375.494,0L9.316,0C5.961,0 3.241,2.72 3.241,6.076L3.241,378.735C3.241,382.091 5.961,384.811 9.317,384.811L375.494,384.811C378.85,384.811 381.57,382.091 381.57,378.735L381.57,6.076C381.57,2.72 378.849,0 375.494,0ZM15.392,309.369L109.823,175.338L208.536,312.611C209.558,314.031 211.142,314.943 212.884,315.111C214.626,315.279 216.355,314.689 217.631,313.491L294.438,241.292L369.418,313.273L369.418,324.051L15.393,324.051L15.392,309.369ZM369.418,12.152L369.418,296.429L298.689,228.529C296.356,226.288 292.676,226.27 290.32,228.484L214.356,299.89L114.705,161.313C113.564,159.725 111.727,158.785 109.772,158.785L109.743,158.785C107.777,158.795 105.938,159.755 104.805,161.361L15.392,288.27L15.392,12.152L369.418,12.152ZM15.392,372.658L15.392,336.202L369.417,336.202L369.417,372.658L15.392,372.658Z" style="fill-rule:nonzero;"/>
        <path d="M252.354,219.544C280.72,219.544 303.797,196.467 303.797,168.101C303.797,139.735 280.72,116.658 252.354,116.658C223.988,116.658 200.911,139.735 200.911,168.101C200.911,196.467 223.989,219.544 252.354,219.544ZM252.354,128.81C274.019,128.81 291.645,146.436 291.645,168.101C291.645,189.766 274.019,207.392 252.354,207.392C230.689,207.392 213.063,189.766 213.063,168.101C213.063,146.436 230.689,128.81 252.354,128.81Z" style="fill-rule:nonzero;"/>
    </g>
    <g transform="matrix(0.503381,0,0,0.481975,-1.63146,336.531)">
        <rect x="9.316" y="6.076" width="366.177" height="372.658" style="fill:rgb(74,207,217);"/>
        <path d="M9.316,307.443L109.772,164.861L213.468,309.063L294.481,232.911L375.494,310.684L375.494,378.734L9.316,378.734L9.316,307.443Z" style="fill:rgb(205,212,213);fill-rule:nonzero;"/>
        <circle cx="252.354" cy="168.101" r="45.367" style="fill:rgb(255,140,41);"/>
        <rect x="9.316" y="330.127" width="366.177" height="48.608" style="fill:rgb(255,165,0);"/>
        <rect x="9.316" y="6.076" width="184.709" height="372.658" style="fill:rgb(2,149,170);"/>
        <path d="M109.772,164.861L9.316,307.443L9.316,378.734L194.025,378.734L194.025,282.025L109.772,164.861Z" style="fill:rgb(155,170,171);fill-rule:nonzero;"/>
        <circle cx="252.354" cy="168.101" r="45.367" style="fill:rgb(255,209,169);"/>
        <path d="M206.987,168.101C206.987,193.157 227.298,213.468 252.354,213.468L252.354,122.734C227.299,122.734 206.987,143.046 206.987,168.101Z" style="fill:rgb(255,165,0);fill-rule:nonzero;"/>
        <rect x="9.316" y="330.127" width="184.709" height="48.608" style="fill:rgb(253,106,51);"/>
        <path d="M339.848,73.722C336.492,73.722 333.772,71.002 333.772,67.646C333.772,60.275 327.775,54.279 320.405,54.279C313.034,54.279 307.038,60.276 307.038,67.646C307.038,71.002 304.318,73.722 300.962,73.722C297.606,73.722 294.886,71.002 294.886,67.646C294.886,60.275 288.889,54.279 281.519,54.279C274.148,54.279 268.152,60.276 268.152,67.646C268.152,71.002 265.432,73.722 262.076,73.722C258.72,73.722 256,71.002 256,67.646C256,60.275 250.003,54.279 242.633,54.279C235.263,54.279 229.266,60.276 229.266,67.646C229.266,71.002 226.546,73.722 223.19,73.722C219.834,73.722 217.114,71.002 217.114,67.646C217.114,53.575 228.562,42.127 242.633,42.127C250.413,42.127 257.392,45.627 262.076,51.135C266.76,45.627 273.739,42.127 281.519,42.127C289.299,42.127 296.278,45.627 300.962,51.135C305.646,45.627 312.625,42.127 320.405,42.127C334.476,42.127 345.924,53.575 345.924,67.646C345.924,71.001 343.204,73.722 339.848,73.722Z" style="fill:white;fill-rule:nonzero;"/>
        <path d="M129.215,125.57C125.859,125.57 123.139,122.85 123.139,119.494C123.139,112.123 117.142,106.127 109.772,106.127C102.402,106.127 96.405,112.124 96.405,119.494C96.405,122.85 93.685,125.57 90.329,125.57C86.973,125.57 84.253,122.85 84.253,119.494C84.253,112.123 78.256,106.127 70.886,106.127C63.516,106.127 57.519,112.124 57.519,119.494C57.519,122.85 54.799,125.57 51.443,125.57C48.087,125.57 45.367,122.85 45.367,119.494C45.367,105.423 56.815,93.975 70.886,93.975C78.666,93.975 85.645,97.475 90.329,102.983C95.013,97.475 101.992,93.975 109.772,93.975C123.843,93.975 135.291,105.423 135.291,119.494C135.291,122.849 132.571,125.57 129.215,125.57Z" style="fill:white;fill-rule:nonzero;"/>
        <path d="M375.494,0L9.316,0C5.961,0 3.241,2.72 3.241,6.076L3.241,378.735C3.241,382.091 5.961,384.811 9.317,384.811L375.494,384.811C378.85,384.811 381.57,382.091 381.57,378.735L381.57,6.076C381.57,2.72 378.849,0 375.494,0ZM15.392,309.369L109.823,175.338L208.536,312.611C209.558,314.031 211.142,314.943 212.884,315.111C214.626,315.279 216.355,314.689 217.631,313.491L294.438,241.292L369.418,313.273L369.418,324.051L15.393,324.051L15.392,309.369ZM369.418,12.152L369.418,296.429L298.689,228.529C296.356,226.288 292.676,226.27 290.32,228.484L214.356,299.89L114.705,161.313C113.564,159.725 111.727,158.785 109.772,158.785L109.743,158.785C107.777,158.795 105.938,159.755 104.805,161.361L15.392,288.27L15.392,12.152L369.418,12.152ZM15.392,372.658L15.392,336.202L369.417,336.202L369.417,372.658L15.392,372.658Z" style="fill-rule:nonzero;"/>
        <path d="M252.354,219.544C280.72,219.544 303.797,196.467 303.797,168.101C303.797,139.735 280.72,116.658 252.354,116.658C223.988,116.658 200.911,139.735 200.911,168.101C200.911,196.467 223.989,219.544 252.354,219.544ZM252.354,128.81C274.019,128.81 291.645,146.436 291.645,168.101C291.645,189.766 274.019,207.392 252.354,207.392C230.689,207.392 213.063,189.766 213.063,168.101C213.063,146.436 230.689,128.81 252.354,128.81Z" style="fill-rule:nonzero;"/>
    </g>
    <g transform="matrix(0.729481,0,0,1.05647,53.7501,-157.055)">
        <rect x="26.809" y="467.203" width="160.576" height="51.868"/>
    </g>
    <g transform="matrix(2.03563,0,0,2.94809,154.554,-1377.36)">
        <rect x="26.809" y="467.203" width="160.576" height="51.868"/>
    </g>
    <g transform="matrix(0.855134,0,0,0.855134,97.4959,-40.5409)">
        <text x="150.469px" y="185.56px" style="font-family:'Montserrat-SemiBold', 'Montserrat';font-weight:600;font-size:133.175px;fill:white;">2</text>
        <text x="262.869px" y="185.56px" style="font-family:'Montserrat-Black', 'Montserrat';font-weight:900;font-size:133.175px;fill:white;">mb</text>
    </g>
    <g transform="matrix(0.261319,0,0,0.261319,47.2609,328.176)">
        <text x="128.828px" y="185.56px" style="font-family:'Montserrat-SemiBold', 'Montserrat';font-weight:600;font-size:133.175px;fill:white;">82</text>
        <text x="328.058px" y="185.56px" style="font-family:'Montserrat-Black', 'Montserrat';font-weight:900;font-size:133.175px;fill:white;">kb</text>
    </g>
</svg>
